/* XPM */
static char *ada9c_l9uhn[] = {
/* columns rows colors chars-per-pixel */
"50 50 159 2 ",
"   c #CCCBCE",
".  c #CFCFD0",
"X  c #D1CED2",
"o  c #D5D4D5",
"O  c #D8D6D7",
"+  c #D7D6D9",
"@  c #D9D7DA",
"#  c #DCDCDD",
"$  c #E0DEDF",
"%  c #E1E1DF",
"&  c #DFDEE0",
"*  c #E1DFE1",
"=  c #E6E4E5",
"-  c #E6E6E4",
";  c #E6E6E5",
":  c #E7E7E5",
">  c #E4E4E6",
",  c #E5E5E6",
"<  c #E4E4E7",
"1  c #E5E5E7",
"2  c #E6E4E6",
"3  c #E6E5E6",
"4  c #E7E5E6",
"5  c #E6E4E7",
"6  c #E7E5E7",
"7  c #E6E6E6",
"8  c #E7E6E6",
"9  c #E7E7E6",
"0  c #E6E6E7",
"q  c #E7E7E7",
"w  c #E5E5E5",
"e  c #E3E3E3",
"r  c #E8E6E6",
"t  c #E8E6E7",
"y  c #E8E7E7",
"u  c #E8E6E7",
"i  c #E8E8E6",
"p  c #E9E9E6",
"a  c #E8E8E7",
"s  c #E9E9E7",
"d  c #E9EAE6",
"f  c #E9EAE7",
"g  c #EAEAE7",
"h  c #E9E9E7",
"j  c #E3E2E8",
"k  c #E5E5E8",
"l  c #E7E5E8",
"z  c #E6E6E8",
"x  c #E7E6E8",
"c  c #E7E7E8",
"v  c #E7E7E9",
"b  c #E7E7EA",
"n  c #E7E6E8",
"m  c #E8E7E8",
"M  c #E9E7E8",
"N  c #E8E7E9",
"B  c #E9E7E9",
"V  c #EAE7E8",
"C  c #E9E7E9",
"Z  c #E8E8E8",
"A  c #E9E8E8",
"S  c #E9E9E8",
"D  c #E8E8E9",
"F  c #E9E8E9",
"G  c #E8E9E9",
"H  c #E9E9E9",
"J  c #EAE8E9",
"K  c #EAE9E9",
"L  c #EAEAE8",
"P  c #EBEBE8",
"I  c #EAEAE9",
"U  c #EBEBE9",
"Y  c #E8E8EA",
"T  c #E9E9EA",
"R  c #E8E8EB",
"E  c #E9E9EB",
"W  c #EBE9EA",
"Q  c #EAE9EB",
"!  c #EAEAEA",
"~  c #EBEBEA",
"^  c #EAEAEB",
"/  c #EBEBEB",
"(  c #ECEAEA",
")  c #ECEAEB",
"_  c #ECEBEB",
"`  c #EDEBEB",
"'  c #EBECEA",
"]  c #EBECEB",
"[  c #ECECEA",
"{  c #EDEDEA",
"}  c #ECECEB",
"|  c #EEEEEB",
" . c #E9E8EC",
".. c #EBE9EC",
"X. c #EAEAEC",
"o. c #EAEAED",
"O. c #EAEBED",
"+. c #EBEBED",
"@. c #EDEBEC",
"#. c #ECEAED",
"$. c #ECEBED",
"%. c #ECECEC",
"&. c #EDEDEC",
"*. c #ECECED",
"=. c #EDECED",
"-. c #EDEDED",
";. c #EEECED",
":. c #EFEFED",
">. c #ECECEE",
",. c #EDEDEE",
"<. c #ECECEF",
"1. c #EDEDEF",
"2. c #EFEDEE",
"3. c #EEEEEE",
"4. c #EFEFEE",
"5. c #EEEEEF",
"6. c #EFEFEF",
"7. c #EBEBEB",
"8. c #F0EEEE",
"9. c #F0EEEF",
"0. c #F0EEEF",
"q. c #EFF0ED",
"w. c #EFF0ED",
"e. c #F0F0EE",
"r. c #F1F1EF",
"t. c #F0F0EE",
"y. c #EDECF0",
"u. c #EEEEF0",
"i. c #EFEFF0",
"p. c #EFEFF1",
"a. c #F0EEF0",
"s. c #F0EFF0",
"d. c #F1EFF0",
"f. c #F1EFF0",
"g. c #F0F0F0",
"h. c #F1F1F1",
"j. c #F2F0F1",
"k. c #F2F2F1",
"l. c #F3F3F1",
"z. c #F1F1F2",
"x. c #F1F1F3",
"c. c #F3F1F2",
"v. c #F2F2F2",
"b. c #F2F2F3",
"n. c #F3F3F3",
"m. c #F4F2F3",
"M. c #F4F4F2",
"N. c #F3F3F4",
"B. c #F4F2F4",
"V. c #F5F3F4",
"C. c #F4F4F4",
"Z. c #F5F4F4",
"A. c #F5F5F5",
"S. c #F6F6F4",
"D. c #F5F4F6",
"F. c #F5F5F6",
"G. c #F7F5F6",
"H. c #F3F2F2",
"J. c #F9F9FA",
/* pixels */
"e w w Z %.j # & # b %.%.& # j i.o.e w N.w @ k w %.w e w # e Z Z j + j Z k o.w $.Z w %.%.@ e w w w w ",
"Z w Z %.Z & j k # # %.v.k # @ o.i.Z > v.k e w e Z Z w Z Z w m Z Z w k j j k j %.( e w $.$ # %.t e w ",
"Z w w Z %.# j o.k e # v.i.& o O w o.Z Z w w Z Z v.Z e e %.%.v.w & k v.e j w o.%.$.Z w e * # t @ # Z ",
"Z %.v.} w @ * k Z o.# # Z o.Z # & # %.w w w k e v.v.e O e %.%.s.w M C.k # M o.m.m.%.Z w $.w %.e e w ",
"w w %.v.p @ + e w v.Z & + & k Z O + j e >.b e w k k %.# # %.# e Z Z $.w e w w t C.f.Z t %.Z t M Z $.",
"%.Z %.%.M.e # @ > %.Z Z e e e Z j @ O & w j & Z %.w o.j Z Z m # * 9.$.# e k k f.f.$.9.( M Z w e e e ",
"Z v.Z ' e.i.%.k w %.k & e Z i.w o.k e w w j # w v.Z w Z i.Z %.# # ( f.M j $.w v.( t w Z t w t # # * ",
"w Z Z e Z w %.%.%.C.v.k @ w o.%.k j %.Z v.w # e %.e # o.w Z Z e e w $.w & Z } 9.9.t t %.e e %.e w Z ",
"%.w } e # w Z w e %.v.%.j > j Z > @ e # Z Z w Z e # @ # w %.e # M M t * @ e q.( f.w f.m.v.t # e t M ",
"w w %.Z O # e w e w %.w e %.i.w j j # e Z w e v.v.k j o @ v.w # e f.( M & w p w M w %.%.v.%.e t w w ",
"e w w w e e ' e e Z Z Z o # J.Z + & @ # Z w $ w %.v.b # @ w Z # # e Z e # e - w # w f.t M t ( t * # ",
"Z %.w e Z e Z # @ w %.%.@ O Z %.e e O o o w @ # w } %.& # w %.w # @ Z Z w @ # M # t %.$.w # ( ( M e ",
"O # w # w v.%.Z $ # e %.Z # # %.> Z e e + w # e Z p %.# @ w Z %.w e e Z o.# # e e t Z M w * ( $.$ O ",
"@ e e e Z %.%.v.Z e e Z %.w e Z e %.k e Z Z e w w - v.& O e Z Z Z Z e w k w # $ w e ( e e $ ( f.w $ ",
"C.v.e e %.w w %.Z w Z Z v.p w w e %.Z # w Z w w e e Z w & e Z } w Z f.e Z %.# e w e $.w e t ( m.v.m.",
"v.Z w w %.v.%.%.w e w p e.} Z w Z %.e w e Z v.w Z Z %.w # j Z p # @ w w Z v.Z e # # Z M @ # w $ w ( ",
"w Z w @ e %.C.Z w w w p %.e.v.Z e %.%.Z w w %.Z %.%.Z w @ # e Z Z # o # w %.%.v.w w t %.w w t w e ( ",
"Z Z Z e # m %.Z Z Z e w } e.} v.e e e w m w e e e C.%.Z C.k e p v.Z # # # # w w w m w w w $.t w w C.",
"Z w Z Z Z w w w Z Z w w w %.p w %.k e w Z w e Z w w # e v.%.Z Z %.%.e Z e @ w # Z e Z e O t M M w ( ",
"e # Z Z w w w w Z e w e # v.p w & & w Z e w # w Z e O @ # Z w %.%.%.w Z e e w w w # Z w e * w w e e ",
"%.e w v.w @ # Z %.Z Z v.p Z p } & @ Z Z w Z # e %.e e @ @ e @ e Z %.Z %.Z w %.Z # # Z t e w * w @ w ",
"w e Z C.%.% O w w w - e.} e Z %.Z & e e Z Z Z Z Z j e # e w @ + w %.e w %.w q.C.Z $ $ M e # w e # w ",
"# o # Z %.e # e e # Z C.} e w w w Z e @ Z w Z v.%.Z # e p p # & w Z e # w # w C.m.t e Z Z w e # # o.",
"w O # e Z e Z Z %.e w C.%.e w Z w e e e e e e %.v.Z # e p p # # j %.w w Z # # %.C.( ( w $.( e @ @ e ",
"w w w % e w e w w Z e e.M.p Z %.v.Z e % O @ # %.Z w # # - w # @ O Z w Z %.w @ # e w t Z w t %.* + @ ",
"e.e.} # w Z w - # # # p M.p - w p Z Z - O o o e %.w # e e # @ @ o # w e e w Z Z # # e Z e @ ( Z # e ",
"M.v.p e Z %.e w w @ O e %.} Z w p e %.v.e e e e m Z Z Z w w w o O e e e e o e %.Z # w %.w o w M # Z ",
"v.%.% } v.%.e e Z w # p % w e.} - w %.%.w @ e %.m Z v.C.e # %.w # Z %.# w e e e e w # w w t w Z e ( ",
"p Z O w v.Z p # e e e Z # @ } %.w w %.Z Z # # e Z w e v.%.e e Z - e v.w # w %.e # v.%.w @ # $.f.%.w ",
"p - w e p p } w w Z Z b w @ w %.e w w w Z e e e # w # e v.w # %.e @ e e w e Z w e Z w Z w @ * w v.w ",
"w % - p w w } w } w w e e w e # # w Z e e # @ Z e w w # Z e # v.%.Z # # e e e w e w Z # Z w # $ ( e ",
"- Z } } w - - w w w e e O Z w O   Z Z % w # # w w e %.w # # # v.Z w w # e Z w # # w %.o w w e * * * ",
"# e w } Z Z w p Z % e e . w %.O @ %.%.w - w # e w e v.%.w O @ %.( $.Z # # %.Z w @ @ %.O # # # & O   ",
"- Z # Z v.e.p p } - Z Z # e Z @ # w Z Z - - @ % e # w Z %.O w ' M %.f.w e %.e Z Z @ - e w w Z j o . ",
"w - e % p } %.w - - w Z # e e # Z Z } %.- # e @ w w e %.Z   e %.w e ( Z w v.Z e w # e e # w %.e w e ",
"@ @ Z w p } %.v.p %.Z Z O # w e # } p } } O w e j Z w Z e o e - w e %.( # w C.Z e e m %.w @ w @ e w ",
"+ + v.p e Z w Z Z Z C.C.e @ w e O e w - w + + e e w Z e e # w # t $ V.$.# $ Z Z e # e C.q.Z e O e w ",
"+ o w q.w # # w Z # v.C.Z e w } w e e p - e O # e Z Z # @ w m e Z w Z v.e e w $ e # # w # Z %.# e e ",
"j @ @ w %.e O e Z @ w %.Z w Z Z Z v.% # p e # # + # Z Z # @ %.w $.9.Z v.Z e w e w e w e # @ w w e Z ",
"%.e @ e e O @ O e e e w w w p w Z e.w e w %.w j e # e e e @ # e w $.9.( ( w w e w Z Z w w * O e w ( ",
"w e # w e @ w # @ # # e e e p Z } Z # e w e.w # w e e w e e # e $.v.$.w Z $.Z M Z M M e # w # e %.e ",
"w e # % # e w Z w w w w # w p Z e.w w # % Z Z # e @ # e e e @ # e 9.( # e $.* t f.Z Z t # # w w $.$.",
"Z Z @ @ O # %.%.w e Z w e # %.p w # w Z w w e w e e w # @ e & @ * e Z # M Z # ( M e Z e # * * $ Z f.",
"Z e e e w e Z ' # # p w w & # } > j w w Z Z } %.* w Z w e k k w k w # @ Z w # f.( e e w # @ # # Z %.",
"e e %.$ e w w w @ @ Z p Z j @ w w e e Z e O w v.%.w ( Z w # e o.k w j * w # @ $.( * # j M @ o & w o.",
"# Z Z @ # Z w e e # w p Z # O # @ e & w w @ o w Z w ( v.w O + & e & M w * k w w e M e # k w & *   + ",
"# e w # @ %.k j e w e ( %.w # # # w w # # # O w w # Z %.$.* # & * j k * o * M w # e M $ w t w k X @ ",
"# # & e & k k @ @ w w M w v.o.e e %.j # & @ X * w @ Z Z f.e & @ # o.* w # O w & & # @ Z e $ M * Z @ ",
"& # j & # + j + @ # j e # ( w k e o.w e j w @ o w e w %.Z $.Z & o M w e w @ & M & @ # ( Z * & & * w ",
"& + w k # O & # w # * w # w $.w k k k k w * e # # * e %.j k f.M o # o.w # k w Z * o * t M w # # @ j "
};
