/* XPM */
static char *av53j_w1e01[] = {
/* columns rows colors chars-per-pixel */
"50 50 222 2 ",
"   c None",
".  c #0F101D",
"X  c #10101D",
"o  c #10111D",
"O  c #10111E",
"+  c #11111E",
"@  c #11121F",
"#  c #12121F",
"$  c #12131F",
"%  c #101123",
"&  c #111223",
"*  c #111224",
"=  c #121325",
"-  c #121326",
";  c #131426",
":  c #141526",
">  c #141527",
",  c #151627",
"<  c #151528",
"1  c #151628",
"2  c #161728",
"3  c #171829",
"4  c #18192A",
"5  c #191A2B",
"6  c #1A1B2C",
"7  c #1B1C2D",
"8  c #1D1E2F",
"9  c #212233",
"0  c #222333",
"q  c #252635",
"w  c #252636",
"e  c #262636",
"r  c #272838",
"t  c #2B2C3C",
"y  c #2C2D3D",
"u  c #2E2F3D",
"i  c #333442",
"p  c #353645",
"a  c #383847",
"s  c #3A3B48",
"d  c #3C3C48",
"f  c #3C3C4A",
"g  c #3C3D4B",
"h  c #3D3E4B",
"j  c #3C3D4C",
"k  c #3D3E4C",
"l  c #3F404E",
"z  c #40404F",
"x  c #40414F",
"c  c #414150",
"v  c #414250",
"b  c #424250",
"n  c #444551",
"m  c #464753",
"M  c #474855",
"N  c #4B4B59",
"B  c #565660",
"V  c #565762",
"C  c #595964",
"Z  c #5E5F69",
"A  c #FF4177",
"S  c #FF4278",
"D  c #FF4378",
"F  c #FF4379",
"G  c #FF4479",
"H  c #FF447A",
"J  c #FF457A",
"K  c #FF457B",
"L  c #FF467A",
"P  c #FF467B",
"I  c #FF477B",
"U  c #FF467C",
"Y  c #FF477C",
"T  c #FF487C",
"R  c #FF497D",
"E  c #FF4A7D",
"W  c #FF4A7E",
"Q  c #FF4B7E",
"!  c #FF4B7F",
"~  c #FF4C7F",
"^  c #FF4C80",
"/  c #FF4D80",
"(  c #FF4E80",
")  c #FF4E81",
"_  c #FF4F81",
"`  c #FF4F82",
"'  c #FF5082",
"]  c #FF5182",
"[  c #FF5183",
"{  c #FF5283",
"}  c #FF5284",
"|  c #FF5384",
" . c #FF5485",
".. c #FF5585",
"X. c #FF5586",
"o. c #FF5686",
"O. c #FF5887",
"+. c #FF5B8A",
"@. c #FF5C8B",
"#. c #FF5F8D",
"$. c #FF608D",
"%. c #FF618E",
"&. c #FF618F",
"*. c #FF648F",
"=. c #FF6490",
"-. c #FF6590",
";. c #FF6491",
":. c #FE6691",
">. c #FF6691",
",. c #FF6793",
"<. c #FF6994",
"1. c #FF6A95",
"2. c #FF6C96",
"3. c #FF6C97",
"4. c #FF6D97",
"5. c #FF6E98",
"6. c #FF6F98",
"7. c #FF7099",
"8. c #FF719A",
"9. c #FF729A",
"0. c #FF759D",
"q. c #FF769D",
"w. c #FF759E",
"e. c #FF769E",
"r. c #FF779F",
"t. c #FE789D",
"y. c #FE789E",
"u. c #FF789F",
"i. c #FE7A9F",
"p. c #FE7B9F",
"a. c #FF79A0",
"s. c #FF7AA1",
"d. c #FF7BA1",
"f. c #FF7BA2",
"g. c #FF7CA2",
"h. c #FF7DA2",
"j. c #FF7DA3",
"k. c #FF7EA3",
"l. c #FF7EA4",
"z. c #FF7FA4",
"x. c #FF7FA5",
"c. c #FE80A3",
"v. c #FF80A5",
"b. c #FF81A6",
"n. c #FF82A6",
"m. c #FF82A7",
"M. c #FE86A7",
"N. c #FF84A8",
"B. c #FF85A8",
"V. c #FE87A8",
"C. c #FE88A9",
"Z. c #FF89AB",
"A. c #FF8AAB",
"S. c #FF8AAC",
"D. c #FF8BAD",
"F. c #FE8DAC",
"G. c #FE8EAD",
"H. c #FF8DAE",
"J. c #FF8EAE",
"K. c #FF8FAF",
"L. c #FE90AE",
"P. c #FE91B0",
"I. c #FF91B0",
"U. c #FE93B0",
"Y. c #FF92B1",
"T. c #FE93B1",
"R. c #FE94B1",
"E. c #FE95B1",
"W. c #FF95B3",
"Q. c #FE96B3",
"!. c #FE96B4",
"~. c #FE98B4",
"^. c #FE99B5",
"/. c #FE99B6",
"(. c #FE9AB6",
"). c #FE9CB7",
"_. c #FE9DB7",
"`. c #FE9DB8",
"'. c #FE9EB8",
"]. c #FE9EB9",
"[. c #FE9FB9",
"{. c #FEA0B9",
"}. c #FEA6BF",
"|. c #FEA8C0",
" X c #FEA9C0",
".X c #FEA9C1",
"XX c #FEABC1",
"oX c #FEABC2",
"OX c #FEACC2",
"+X c #FEACC3",
"@X c #FEADC4",
"#X c #FEAEC4",
"$X c #FEAFC5",
"%X c #FEB1C6",
"&X c #FEB2C6",
"*X c #FEB2C7",
"=X c #FEB3C7",
"-X c #FEB4C8",
";X c #FEB5C9",
":X c #FEB6C9",
">X c #FEB7CA",
",X c #FEB8CB",
"<X c #FEBACC",
"1X c #FEBBCD",
"2X c #FEBCCD",
"3X c #FEBCCE",
"4X c #FFBCCE",
"5X c #FEBDCE",
"6X c #FEBECF",
"7X c #FEC0D1",
"8X c #FEC1D1",
"9X c #FEC1D2",
"0X c #FEC2D2",
"qX c #FEC7D5",
"wX c #FFC7D6",
"eX c #FFC9D8",
"rX c #FFDBE4",
"tX c #FFDDE6",
"yX c #FFDEE7",
"uX c #FFDFE7",
"iX c #FFE2E9",
"pX c #FFE3EB",
/* pixels */
"                                                                                                    ",
"                                                                                                    ",
"                                                                                                    ",
"                                                                                                    ",
"                                                                                                    ",
"                                                                                                    ",
"                                                                                                    ",
"                                                                                                    ",
"                                                                                                    ",
"                                                                                                    ",
"                                                                                                    ",
"                                                      U F G G F ~                                   ",
"                                                      G ] F.T.T.N./                                 ",
"                                                      G o.XX:X6X].G !                               ",
"                                                      G / h.F.1X_.G A F F G ]                       ",
"                                                    ] G ~ r.N.].W.u.u.u.:.F /                       ",
"                                          / G U U U G G ] r.d.d.C.:X1X6XW.F /                       ",
"                                      / / T.].].].].].].L.o./ / #.C./.6XT.A ~                       ",
"                                      2.5.:XwX6X6X6X6X6XOX:.O.F ] d.D.OXT.&.:.                      ",
"                                  ! ! 6XtXtXtX0X1X1X1X1X1X,X_.G ] d.l.l.T.,XF.G ]                   ",
"                                ] &.<.wXpXpXtX0X1X1X1X1X1X6XXX:.&.@.@.+.:.u.*.F /                   ",
"                              ! F 5.N.eXtXtXrX0X1X1X1X1X1X6X@Xn.5.F F G G F G G |                   ",
"                              ! G 5.n.*X0X0X0X6X1X1X1X1X1X6X@Xn.5.G !                               ",
"                              ! G 5.n.@X1X1X1X1X1X1X1X1X:XXX].n.5.G !                               ",
"                              ~ F 2.n.OX1X1X1X1X1X1X1X1X@Xn.h.l.5.G !                               ",
"                    ! ! ! ! ! G F 5.l.F.W.:X6X6X6X6X:X!.F.l.h.l.5.F !                               ",
"                  / F / o./ ! ! ~ <.r.d.n.XX*X*X*X*XXXn.h.h.d.r.<.! ]                               ",
"                  / F C.*XC.r.r.r.| ! 9.l.n.n.n.n.n.n.h.h.l.9.! /                                   ",
"                    ] u.M.T./.N.d.] F +.:.u.h.h.h.h.h.h.u.:.&.]                                     ",
"                      / F W.6XT.h.| F G U 9.d.d.d.d.d.d.9.U !                                       ",
"                      / F W.6X*XXXh.2.5.2.o./ / / / / / o.                                          ",
"                      / F c.].].].T.D.n.d.~ F ! ! ! ! U /                                           ",
"                      / F G U G ! _.:XC.r.~ G                                                       ",
"                              U G _.6X}./.] G                                                       ",
"                              / ! /.*X*XXXo.G                                                       ",
"                                  +.o.o.| G G                                                       ",
"                                    ! ! ! ! /                                                       ",
"                                                                                                    ",
"                                                                                                    ",
"                                                                                                    ",
"                                                                                                    ",
"                                                                                                    ",
"                                                                                                    ",
"                                                                                                    ",
"                                                                                                    ",
"                                                                                                    ",
"$ $ $ $ $ $ $ . . $ $ $ $ $ $ $ $ $ $ $ $ $ $ $ $ $ $ $ $ $ $ $ $ $ $ $ $ $ $ $ $ $ $ $ $ $ $ $ $ % ",
"% 5 w 0 w 0 w d i r y y 5 % * * * * * * * * * * * * * * * * * * * * , 2 , 2 3 , , ; , 5 6 5 5 7 2 * ",
"% 8 m m s d f B Z C B b ; * * * * * * * * * * * * * * * * * * * * % 0 l j j b l p a d d M b x N t % ",
"* * , , , , ; 2 2 2 2 , * * * * * * * * * * * * * * * * * * * * * * * 2 2 2 2 2 , 2 2 , 2 2 , , * * "
};
