/* XPM */
static char *aj3n7_ro9nv[] = {
/* columns rows colors chars-per-pixel */
"50 50 193 2 ",
"   c None",
".  c #650F36",
"X  c #2B0E65",
"o  c #290D6C",
"O  c #2C166A",
"+  c #260A75",
"@  c #270B79",
"#  c #280C76",
"$  c #2D137A",
"%  c #351B7B",
"&  c #3C206E",
"*  c #3D267E",
"=  c #22287F",
"-  c #7C2545",
";  c #41277E",
":  c #5F457D",
">  c #8A383A",
",  c #A8583B",
"<  c #A7593A",
"1  c #B1633D",
"2  c #C27A3A",
"3  c #B03756",
"4  c #B13361",
"5  c #CB3862",
"6  c #DB3063",
"7  c #B5564A",
"8  c #AD4952",
"9  c #B77958",
"0  c #B76B56",
"q  c #9A5A62",
"w  c #B3526F",
"e  c #BD6F70",
"r  c #A76A77",
"t  c #D17643",
"y  c #CE5B70",
"u  c #DF727D",
"i  c #D7943A",
"p  c #E6A939",
"a  c #BB8B74",
"s  c #D78F43",
"d  c #EB9F5E",
"f  c #EF8946",
"g  c #EBB251",
"h  c #D39671",
"j  c #E0996E",
"k  c #E38966",
"l  c #E8A971",
"z  c #FFD571",
"x  c #FCCD68",
"c  c #1C1B89",
"v  c #231986",
"b  c #1F338D",
"n  c #1B2C9C",
"m  c #1C3C97",
"M  c #1C3E99",
"N  c #1F3593",
"B  c #1F2C82",
"V  c #222B84",
"C  c #203290",
"Z  c #253A9B",
"A  c #3A2988",
"S  c #1A34A5",
"D  c #1A3CA9",
"F  c #183DB0",
"G  c #523785",
"H  c #1B419A",
"J  c #20419F",
"K  c #39469D",
"L  c #1A43A2",
"P  c #1A44AB",
"I  c #1D48AC",
"U  c #164DBB",
"Y  c #1848B4",
"T  c #1950BD",
"R  c #274FB1",
"E  c #2556BA",
"W  c #2B42A4",
"Q  c #5D438D",
"!  c #47469E",
"~  c #5E5698",
"^  c #6B4992",
"/  c #7F6C95",
"(  c #5356A8",
")  c #4F58B3",
"_  c #7A5CA3",
"`  c #5263B4",
"'  c #5C71BF",
"]  c #4E69BD",
"[  c #6666A6",
"{  c #7170AC",
"}  c #0E55CC",
"|  c #1453C5",
" . c #1356C9",
".. c #1359CC",
"X. c #195BCB",
"o. c #0E5DD5",
"O. c #105ED4",
"+. c #265CC1",
"@. c #0F61D9",
"#. c #1060D7",
"$. c #1061D8",
"%. c #1C62D5",
"&. c #94639A",
"*. c #B66F97",
"=. c #8675A4",
"-. c #9369B4",
";. c #9778B8",
":. c #8672B0",
">. c #9E73C6",
",. c #A678C6",
"<. c #7395D8",
"1. c #9C87AD",
"2. c #9E91AD",
"3. c #8D89BD",
"4. c #978CB9",
"5. c #A093AD",
"6. c #A18CBE",
"7. c #A899BE",
"8. c #B4A5BA",
"9. c #E5B581",
"0. c #F5CB88",
"q. c #959AC7",
"w. c #9295CC",
"e. c #A398C4",
"r. c #B29BC8",
"t. c #A592CF",
"y. c #97A4C6",
"u. c #97A9D7",
"i. c #9BB4D5",
"p. c #A5A3C9",
"a. c #A7A7C9",
"s. c #BAA8C9",
"d. c #B5B3CC",
"f. c #A0B2D6",
"g. c #B0BCDF",
"h. c #B4A9D5",
"j. c #8B95EA",
"k. c #909FE1",
"l. c #848BE9",
"z. c #97A7ED",
"x. c #9BB2E7",
"c. c #A1B6EF",
"v. c #A2BCEE",
"b. c #A2BCE1",
"n. c #A5BEF0",
"m. c #B0A8E8",
"M. c #C4B7CD",
"N. c #CBBBDA",
"B. c #C1A9D7",
"V. c #A4C0EF",
"C. c #A9C8E5",
"Z. c #AFD0ED",
"A. c #B2D8EF",
"S. c #A9C5F0",
"D. c #ACCCF1",
"F. c #A7C5F0",
"G. c #B0CBF2",
"H. c #AED2F2",
"J. c #B3D5F2",
"K. c #B6DBF3",
"L. c #BCDDF4",
"P. c #BEE1F4",
"I. c #CAC2D7",
"U. c #D5CBDD",
"Y. c #CFC8E0",
"T. c #D7CDE6",
"R. c #DBD7E5",
"E. c #DCD4EA",
"W. c #DCD8E6",
"Q. c #CFD7F3",
"!. c #E2D5EC",
"~. c #E3DEEA",
"^. c #E3DDE7",
"/. c #E9DBF5",
"(. c #C4E2F5",
"). c #CAE5F6",
"_. c #CDE8F7",
"`. c #D4EBF8",
"'. c #DBEEF9",
"]. c #DFF0FA",
"[. c #E7E3EC",
"{. c #EDE4F5",
"}. c #EDE3F7",
"|. c #F2ECF6",
" X c #F2E6FC",
".X c #F5EBFC",
"XX c #E3F2FB",
"oX c #EBF6FC",
"OX c #F7F0FC",
"+X c #F9F4FD",
"@X c #F4FAFD",
"#X c #FFFEFF",
"$X c #F5F1F5",
/* pixels */
"                                                                                                    ",
"                                                                                                    ",
"                                                                                                    ",
"                                                                                                    ",
"                                                                                                    ",
"                                                                                                    ",
"                                                    1                                               ",
"                                                    s                                               ",
"                                                  9 g                                               ",
"                                              >   h g <                                             ",
"                F.v.          V.              8 . h x < > 1                       v.                ",
"                V.J.z.S.    H.F.              y - 9.z 2 , 2                     S.).      S.        ",
"            H.V.J.).D.L.F.G.P.              7 u 0 0.j t i i             D.F.H.J.'.XXL.J.D.K.        ",
"      x.S.D.L.`.`.XX(.oXL.`.`.H.F.          7 y d l 5 3 p f             G.).P.).@XoXoX'.(.D.        ",
"        J.P.'.@XoX'.XX@XoXoX).D.            3 5 d l 6 4 p t         z.J.).XXXX@XoX@X@XXX(.x.        ",
"        z.D._.oX].oXXX'.@X@X(.D.            w y k j 5 8 s 0         z.F.(.oXoX@XoX@XoX@XP.F.        ",
"        j.V.).XXoX@XoX@X].XX(.J.v.        &.*.w e a r 0 9 q         l.n.`.XXoXoX@XoX@XoX).J.        ",
"        F.K.).'.(.oXXXoX_.K.S.        -.-.T.~.=.d.p.i.b.4.7.;.      v.).'.oX'.XXoXXX(.J.G.          ",
"          z.L.J.v.L.Z.L.K.D.        ,.>.;.$X[.y.C.y.Z.J.a.i.t.r.    D.K.(.).`.(.Z.L.K.v.            ",
"            V.z.( <.] C.v.        ^ ) Z 4.#XI.w.q.y.i.J.y.y.q.E.s.    j.c.k.u.b.~   x.V.            ",
"                Z %.I u.          W } ` {.#Xt.m.E.g.4.C.q.q.h.E.|.1.        * ! O                   ",
"                P o.J           D o.T a.#X#X}.{.M.~.I.i.p.[.+X#X#XI.        X # o                   ",
"                I $.P         O Y o.` |.#X#X#X#XM.8.s.w.w.8.!.#X#X|.1.      o @ o                   ",
"                M O. .C       b O.| e.#X#X#X#X#XI.~.}.e.x.a.OX#X#X#XM.    X # @ o                   ",
"                  U $...Y L P ....R Y.#X#X#X#X#X+X#X#XT.u.u.W.#X#X#XU.& o # @ # X                   ",
"                  V | $.@.$.O.U U E R.#X#X#X#X#X#X#X#X+Xp.x.d.#X#X#X^.; @ @ # X                     ",
"                    V P Y P L Y o.+.R.#X#X#X#X#X#X#X#X#XE.w.y.~.#X#X|.Q + o X                       ",
"                          V  .$.@.+.T.#X#X#X#X#X#X#X#X#X#XE.w.p.#X#X.X/                             ",
"                          P $.#.@.T d.#X#X#X#X#X#X#X#X#X#X#XE.4.U.#X/.2.                            ",
"                          U $.#.$. .3.#X#X#X#X#X#X#X#X#X#X#X#X+X+XOX/.2.                            ",
"                          | $.#.#.} [ #X#X#X.X#X#X#X#X#X#X#X#X#X#X.X}.5.                            ",
"                        V ..#.#.#.o.' #X#X#X X#X#X#X#X#X#X#X#X#X+X#X{.                              ",
"                        M O.#.#.#.o.' OX.X#X+XOX#X#X#X#X#X#X#X#XOXU.U.                              ",
"                        L O.#.#.#.o.) N.N.#X+X X X#X#X#X#X#X#X.X#X=.G :                             ",
"                        L O.#.#.#.o.K Q _  X#X#X X+X#X#X#X#X#X.X.X_ c B                             ",
"                        L O.#.#.$...Z n G !.+X#X#X X#X#X#X#X#X.X|.Q n H                             ",
"                        L O.#.#.#.O.O.| v ;.OXOX#X.XOX#X#X#X+X XN.* F H                             ",
"                        L O.#.#.#.#.#.#.S % e.OX#X#X#X#X#X+X+X.X:.v  .M                             ",
"                        L O.#.#.#.#.#.$.O.S % ;.{.#X#X#X#X.X#XB.A U O.m                             ",
"                        L O.#.#.#.#.#.#.$.O.S $ ^ r.}.#X#X X#X6.n $.O.m                             ",
"                        L O.#.#.#.#.#.#.#.#.O.F v $ _ !. X/.R.s.( | O.m                             ",
"                        m O.#.#.#.#.#.#.#.#.#.$...S & r.s.I.N.7.:.R O.m                             ",
"                        =  .$.#.#.#.#.#.#.#.#.#.$. .K [ K 3.=.! | $.|                               ",
"                          C Y O.$.$.$.$.$.$.$.$.$.$.o.} o.X.R  .O.| N                               ",
"                              N L U U | ................ .U U D m                                   ",
"                                                                                                    ",
"                                                                                                    ",
"                                                                                                    ",
"                                                                                                    ",
"                                                                                                    "
};
