/* XPM */
static char *a9sbi_n29me[] = {
/* columns rows colors chars-per-pixel */
"50 50 219 2 ",
"   c #1C2D47",
".  c #2B2D7A",
"X  c #364765",
"o  c #4C5779",
"O  c #48516B",
"+  c #724F6E",
"@  c #6D727F",
"#  c #95001C",
"$  c #A5000C",
"%  c #B80106",
"&  c #B13213",
"*  c #9A002C",
"=  c #B70037",
"-  c #B10024",
";  c #B43537",
":  c #DA0F15",
">  c #FF0903",
",  c #CA283D",
"<  c #AC4A13",
"1  c #B06B1D",
"2  c #9D4034",
"3  c #A17E3B",
"4  c #C96E0B",
"5  c #A00842",
"6  c #9E3140",
"7  c #B53E47",
"8  c #B44E57",
"9  c #914676",
"0  c #C55B48",
"q  c #738277",
"w  c #B29824",
"e  c #BCAD2E",
"r  c #B09716",
"t  c #C88411",
"y  c #DBB707",
"u  c #D3AF18",
"i  c #DDB613",
"p  c #CEAA13",
"a  c #E6BE02",
"s  c #E5BB07",
"d  c #CE9B23",
"f  c #D5B829",
"g  c #CBB737",
"h  c #CFB72E",
"j  c #E7BE28",
"k  c #EDC300",
"l  c #EAC50A",
"z  c #F4C500",
"x  c #FDCD02",
"c  c #FFD301",
"v  c #FFDA02",
"b  c #F7D60C",
"n  c #EFCC12",
"m  c #D7C62E",
"M  c #CEC32E",
"N  c #E1C424",
"B  c #B9A544",
"V  c #B8A859",
"C  c #99917C",
"Z  c #A9A167",
"A  c #C4AD4A",
"S  c #C8B753",
"D  c #C3B466",
"F  c #C6B879",
"G  c #D5C151",
"H  c #282B91",
"J  c #0A0BAA",
"K  c #0101B4",
"L  c #0303BD",
"P  c #1A1BB8",
"I  c #110FBA",
"U  c #2526AE",
"Y  c #2C2CBC",
"T  c #2727B8",
"R  c #3939B6",
"E  c #3535AF",
"W  c #3F508F",
"Q  c #454791",
"!  c #5F7584",
"~  c #757C89",
"^  c #6B6D96",
"/  c #7A7895",
"(  c #6D6E8E",
")  c #4444AA",
"_  c #5B5CAE",
"`  c #5A5BB5",
"'  c #4C5AA1",
"]  c #6969B6",
"[  c #7777B8",
"{  c #6665A6",
"}  c #5672AE",
"|  c #0303C4",
" . c #0B0BC3",
".. c #0403CC",
"X. c #0A09CA",
"o. c #1C1DCB",
"O. c #1718C8",
"+. c #0101D4",
"@. c #0302DB",
"#. c #0C0CDA",
"$. c #181AD8",
"%. c #2626C8",
"&. c #3434CE",
"*. c #3B3AC5",
"=. c #2120D8",
"-. c #0202E4",
";. c #0201EB",
":. c #0A0AE3",
">. c #1819E0",
",. c #1115E6",
"<. c #0101F3",
"1. c #0101FE",
"2. c #4849C8",
"3. c #5C5DCC",
"4. c #4345D8",
"5. c #696AC8",
"6. c #7576C5",
"7. c #7374D2",
"8. c #638294",
"9. c #7EA79D",
"0. c #7F81B9",
"q. c #7DABB9",
"w. c #7EB4C5",
"e. c #7EC6DA",
"r. c #909192",
"t. c #A8A89A",
"y. c #9698A5",
"u. c #8788BB",
"i. c #9899BB",
"p. c #8C95A7",
"a. c #88ACB9",
"s. c #97A8B3",
"d. c #89B2BB",
"f. c #99B3BA",
"g. c #9EA2A2",
"h. c #A4A9AA",
"j. c #B6B6A7",
"k. c #A5ABB6",
"l. c #ABB8B8",
"z. c #BCBCBC",
"x. c #B6B8B8",
"c. c #B2ADA8",
"v. c #C5BF91",
"b. c #C2BDAD",
"n. c #9DD1BB",
"m. c #BFC1BB",
"M. c #C7C29D",
"N. c #CAC4A6",
"B. c #DAD3B3",
"V. c #8585C9",
"C. c #8F91C1",
"Z. c #9798C6",
"A. c #9594DB",
"S. c #86B4C4",
"D. c #89BCC8",
"F. c #9BBACC",
"G. c #86ABC0",
"H. c #B7BAC6",
"J. c #A5A6D1",
"K. c #ADADC9",
"L. c #89C8D9",
"P. c #92C3D1",
"I. c #A4C4C9",
"U. c #BCC7C7",
"Y. c #B6C4D3",
"T. c #8ACBE3",
"R. c #92D6EB",
"E. c #8CD9F4",
"W. c #8CDEF9",
"Q. c #88D8F8",
"!. c #93DDF8",
"~. c #8DD1E9",
"^. c #8EE4FD",
"/. c #93E5FF",
"(. c #93E9FF",
"). c #99E6FF",
"_. c #C3C3C5",
"`. c #CBCBC6",
"'. c #CCCCCC",
"]. c #C5C7CB",
"[. c #D4D4CB",
"{. c #D7D8C9",
"}. c #C4C5D1",
"|. c #CCCDD4",
" X c #D5D5D6",
".X c #D7D8D5",
"XX c #DCDDD6",
"oX c #D5D6DB",
"OX c #DCDCDC",
"+X c #D9D6D8",
"@X c #CCD5D6",
"#X c #E0DFDC",
"$X c #DEE0DE",
"%X c #E3E3D2",
"&X c #E2E3DC",
"*X c #E7E8DA",
"=X c #DADCE5",
"-X c #DAE3E9",
";X c #E3E3E3",
":X c #EBEBE3",
">X c #EDEDED",
",X c #E7E7E9",
"<X c #F1EEEC",
"1X c #F2ECE7",
"2X c #F2F3E5",
"3X c #F3F3EC",
"4X c #FCFCEC",
"5X c #F9F7EA",
"6X c #E3E4F3",
"7X c #ECEDF1",
"8X c #E6EBF5",
"9X c #F0EFF0",
"0X c #F4F4F4",
"qX c #FDFDF4",
"wX c #F5F5FB",
"eX c #F6F8FA",
"rX c #FEFEFE",
"tX c #F8F7F5",
"yX c #EFF0E1",
/* pixels */
"rXrX>X.XOXrXrX>XOXOXrXrX>X.XOXrXrX>X.XOXrXM.j.;XOXrXrX>X.XOXrXrX>XOXOXrXrX>X.XOXrXrX>XOXOXrXrX>XOXOX",
"0X0X>X>X>X>X0X>X>X>X>X0X>X>X>X>X>X>X>X>X6Xg V 8X>X3X0X>X>X>X0X0X>X>X>X>X0X>X>X>X>X>X>X>X>X<X>X>X>X>X",
"OXOX>XrXrXOX.X>XrXrXOXOX>XrXrXOX.X>XrXrXz.a f ,XrXOX.X>XrXrX=XOX>XrXrXOXOX>XrXrXOX.X>XrXrX&X.X>XrXrX",
"rXrX>XOX;XeXrX>XOX;XeXrX>XOX;XeXrX>XXX6XF x a b.,XeXrX3X#X;XeXrX>XOX;XeXrX>XOX;XeXrX>XOX;XeXrX>XOXOX",
"0X0X>X,X>X0X0X>X,X>X0X0X>X,X>X0X0X>X>XoXh c x D 8X3X0X;XOX>X0X0X>X,X>X0X0X>X,X>X0X0X>X,X>X0X0X>X>X>X",
"OX.X>XrXrXOX.X>XrXrXOX.X>XrXrX.Xr.>XrXN.a c c h 7X&X=XZ M.rXOX.X>XrXrXOX.X>XrXrXOX.X>XrXrXOX.X>XrXrX",
"eXrX>X;X;X0XrX>XOX,X0XrX>XOX>XXXp B.6XA x x c s b.rX`.y D 6XtXrX>XOX,X0XrX>XOX,X0XrX>XOX;XeXeX>XOX;X",
"0X0X>X;X,X0X0X>X,X,X0XeX>X;X7XN.k D |.u c x x z F wXS c g =X0X0X>X,X,X0X0X>X,X,X0X0X>X,X,X0X0X>X,X,X",
"OX.X>XrXrXOX.X>XrXrXOX.X>XrXrXD c h C x l l c x S c.a c i .X,X X>XrXrXOX.X>XrXrXOX.X>XrXrXOX.X>XrXrX",
"0XeX>X;X,X0XeX>X;X,X0X0X>X:X-XB c s r N 2 & n c u w c l k v.eXtX>X;X,X0X0X>X;X;X0XeX>X;X,X0XtX>X;X,X",
"eXrX>XOX,XtXeX>X;X;X0XeX>X;X8 < b c i 6 : % < b x c j 8 4 S wXqX>XOX;X0XrX>XOX;X0XeX>XOX,X0XeX>X;X;X",
"OX.X>XrXrXOX.X>XrXrXOX.XeX+X= ; b v t % > % & n x i 7 , - 3 '.OX>XrXrXOX.X>XrXrXOX.X>XrXrXOX.X>XrXrX",
"0X0X>X,X,X0X0X>X,X>X0X0X>XOX9 d c v 1 $ : * 1 v x n 4 # 8 y N.eX>X,X>X0X0X>X,X>X0X0X>X,X>X0X0X>X,X,X",
"rXrX>XOX;XeXrX>XOX;XeXrX>X=Xe v x c z < 5 0 l c c x v p a z V wX0X;X;XeXrX>XOX;XeXrX>XOX;XeXrX>XOX;X",
"OX.X>XrXrXOX.X>XrXrXOX.X0Xz.N.V A g M M B m m g g G B B F B.[.x.OX>X0X;XOX>XrXrXOX.X>XrXrXOX.X>XrXrX",
"0X0X>X>X>X0X0X>X>X>X0X0Xz.[.>XG.F.p.w.E.!.Q.T.q.s.}.Y.a.=XrXrXrX;XOX X_. X>X3X>X0X0X>X>X>X0X0X>X>X>X",
"rXrX>XOX;XqXrX>XOX>X0X'.$X3Xa.^.D.d.S.!.!.).P.d.L.P.!.e.U.rXeXrX`.|.rXqX5X'._.,XeXrX>XOXOXeXrX>XOXOX",
"OXOX>XrXrX&XOX>XrXOX_.0XrXk.E./.P.~./.!.!./.E.f.R.Q.W.W.l.rXrXrX5XQ o.3.J.:X%X X;X.X>XrXeX&XOX>XrXrX",
">X>X>X>X>X>X>X0X X XrXrXh.w.P.S.W.S.L./.R.d.~./.D.x.I.T.d.<XrXrXrX XI 1.-.O.V.x.[.0X>X>X>X>X>X>X>X>X",
"rXrX>XOXOXrXrX_.,XrXrX3XU.;X0Xy.U.g.T.(.d.[.@Xa.].rXrX=Xh.OXrXrXeXrX[.I 1.1.;.P ^ 4XtX.XOXrXrX>XOXOX",
"OXOX>XrXeX,Xx.>XrXrXrXrXrXrXrXrX1Xd./.Q.s.rXrX<XrXrXrXrXrXrXrXrXrXeXrX X .@.:.;.K ) :XrX0X;XOX>XrXrX",
">X>X>X0XeXz.OXrXrXrXrXrXrX>XOX'.k.~.(.L.z.;XrXOX>XrXrXrXrXrXrXrXrXrXeXrXH.| | ;.;.L E &XqX,X>X>X0X0X",
"rXrX>XOX'.z.rXrXrXrXrXrX X  X   D./.E.! o O @ ~ rXrXrXrXrXrXrXrXrXrXrXeXrX[ +.| 1.;.| U .XrXrX>X.XOX",
";XOX>XrXz.;XrXrXrXrXrXrX0Xk.~ 8.)./.q.X O + + r.rXrXrXrXrXrXrXrXrXrXrXrXrXyXo.@...1.-.| R *X=X>XrXeX",
",X,X>X3Xz.rXrXrXrXrXrXrXrXrX].R.^.d.+XrXrXrXrXOXeXrXrXrXrXrXrXrXrXrXrXrXeXrX` <.L <.1...| ] 2X>X0X0X",
"rXrX0X_. XrXrXrXrXrXrXrXrXl.L./.S. XrXrXrXrXrXrXrXrXrXrXrXrXrXrXrXrXrXrXeXrXu.;...+.1.;.L ..}.qX XOX",
";X;X0X_.;XrXrXrXrXrXrXrXx.L.W.f.;XrXrXrXrXrXrXrXrXrXrXrXrXrXrXrXrXrXrXrXeXrXC.;.;.| 1.1.| @.Y 2XeXeX",
";X;X0X`.>XrXrXrXrXrXrXH.e.L.l.<XrXrXrXrXrXrXrXrXrXrXrXrXrXrXrXrXrXrXrXrXeXrX] <.1.| <.1.;. .@.i.rX0X",
"rXrX>X( 0XrXrXrXrX3Xf.q.I..XrXrXrXrXrXrXrXrXrXrXrXrXrXrXrXrXrXrXrXrXrXrXrX4XY 1.1.| ;.1.1.| ;.E %XoX",
";X3XZ.J 3XrXrXrXrX'.U.,XqXrXrXrXrXrXrXrXrXrXrXrXrXrXrXrXrXrXrXrXrXrXrXeXrXH.+.1.1...-.1.1.@.-.+.H.rX",
";X%XT ..&XrXrXrXrXrXrXrXrXrXrXrXrXrXrXrXrXrXrXrXrXrXrXrXrXrXrXrXrXrXrXeXrX` <.1.1...@.1.1.;.X.<.] rX",
"rXK.-.X.XXrXrXrXrXrXrXrXrXrXrXrXrXrXrXrXrXrXrXrXrXrXrXrXrXrXrXrXrXrXrXrX4XY 1.<.1...@.1.1.<.L 1.U {.",
"5X_ <.R qX,XrXrXrXrXrXrXrXrXrXrXrXrXrXrXrXrXrXrXrXrXrXrXrXrXrXrXrXrXrXrX5XT 1.<.1.+.@.1.1.1.| <.X.].",
"[.P -.i.j.h.qXrXrXrXrXrXrXrXrXrXrXrXrXrXrXrXrXrXrXrXrXrXrXrXrXrXrXrXrXeXqX2.<.1.1...-.1.<.1.| ;.-.Z.",
"_.| 1.P . h.i.p.rXrXrXrXrXrXrXrXrXrXrXrXrXrXrXrXrXrXrXrXrXrXrXrXrXtX3X`.c.[ ;.1.1.| ;.1.<.1...-.<._ ",
"p.+.1.| ..&.+.0.rXeXrXrXrXrXrXrXrXrXrXrXrXrXrXrXrXrXrXrXrXrXrXrXrXk./ r.H #.1.1.1.| <.1.1.1...-.1.E ",
"^ -.1.L ;.1.<.[ rXrXrXrXrXrXrXrXrXrXrXrXrXrXrXrXrXrXrXrXrXrXrXeXrX] +.:.<.1.<.1.<.| <.1.<.1...;.1.Y ",
"i.X.,.J ;.1.<.R qXrXrXrXrXrXrXrXrXrXrXrXrXrXrXrXrXrXrXrXrXrXeXrX[. .1.1.1.1.1.1.<.L 1.<.<.1...;.1.%.",
"3Xy.D.} ;.1.1.+.|.rXeXrXrXrXrXrXrXrXrXrXrXrXrXrXrXrXrXrXrXeXrX:XY <.1.1.1.1.1.1.-.L 1.1.1.1.K <.1.%.",
";Xz.q W <.1.1.<.R 4XrXrXrXrXrXrXrXrXrXrXrXrXrXrXrXrXrXeXrXrX}.%.<.1.1.1.1.1.1.1.;.J $.$.#.| | 1.1.%.",
"eXrX:X{ <.1.<.1.;._ qXrXrXrXrXrXrXrXrXrXrXrXrXrXrXeXrXrX2X6.+.1.1.1.1.1.1.1.1.1.1.O.9.n.' -.1.<.1.%.",
"0X0XqXV.<.1.1.1.1.;.` qXrXrXrXrXrXrXrXrXrXrXeXrXrXrX2XZ.o.<.1.1.1.1.1.1.1.1.1.1.1.<.H o U 1.1.<.1.Y ",
"OX XqXA.;.1.1.1.1.1.-.[ rXeXrXrXrXrXrXrXrXrXrX4XoXV.%.;.1.1.1.1.1.1.1.1.1.1.1.1.1.1.<.<.<.1.1.1.<.E ",
"eXeXqXV.<.1.1.1.1.<.1. .:XrXeXrX,XrXrX:XN.}.6.&.-.<.1.1.1.1.1.1.1.1.1.1.1.1.1.1.1.1.1.1.1.1.1.1.<.) ",
"qXeXqXu.;.1.1.1.1.1.1.o.%Xt.{./ {.oX] O.L @.<.1.1.1.1.1.1.1.1.1.1.1.1.1.1.1.1.1.1.1.1.1.1.1.1.1.<.] ",
"OX XqXH.+.1.1.1.1.1.1.%.R P %...4.@.<.1.1.1.1.1.1.1.1.1.1.1.1.1.1.1.1.1.1.1.1.1.1.1.1.1.1.1.1.1.-.u.",
"0X0X>X*X) ;.1.1.1.1.1.1.1.1.1.1.1.1.1.1.1.1.1.1.1.1.1.1.1.1.1.1.1.1.1.1.1.1.1.1.1.1.1.1.1.1.1.1.| x.",
"eXrX>X;X&Xu.&.@.;.<.1.1.1.1.1.1.1.1.1.1.1.1.1.1.1.1.1.1.1.1.1.1.1.1.1.1.1.1.1.1.1.1.1.1.<.;.@.*.J.:X",
"OXOX>XrXrX:XXX|.J.6.*.o.#.;.;.<.<.1.1.1.1.1.1.1.1.1.1.1.1.1.1.1.1.1.1.1.1.<.<.<.;.:.=.4.7.Z.U.5XrXrX",
"0X0X>X>X>X,X7X0XqX4X5X:X'.K.u.6.5.2.*.%.%.$.$.$.$.>.>.$.$.$.$.$.o.%.&.4.3.5.6.C.H.oX&X2X4XqX0X,X,X>X"
};
