/* XPM */
static char *adgx0_fusql[] = {
/* columns rows colors chars-per-pixel */
"50 50 188 2 ",
"   c None",
".  c #7F5D2F",
"X  c #7C5A35",
"o  c #7B5A3B",
"O  c #7A6859",
"+  c #786F60",
"@  c #76797A",
"#  c #825F3B",
"$  c #925F34",
"%  c #925F3B",
"&  c #94622E",
"*  c #8F6034",
"=  c #886930",
"-  c #8D643F",
";  c #916034",
":  c #9A6B34",
">  c #91643D",
",  c #94693F",
"<  c #986536",
"1  c #9C7136",
"2  c #9F7039",
"3  c #97753B",
"4  c #A06E2B",
"5  c #A06F38",
"6  c #A37235",
"7  c #AF7F31",
"8  c #A4743B",
"9  c #AA7B3E",
"0  c #A5783E",
"q  c #8C6543",
"w  c #8E6A46",
"e  c #8C694D",
"r  c #856546",
"t  c #936643",
"y  c #956A43",
"u  c #9A6E46",
"i  c #936D4B",
"p  c #9A6F49",
"a  c #92654A",
"s  c #9C7246",
"d  c #97704B",
"f  c #9E714A",
"g  c #9D784D",
"h  c #856C57",
"j  c #8F765C",
"k  c #937656",
"l  c #9D7551",
"z  c #90765D",
"x  c #907956",
"c  c #A07347",
"v  c #AC7B41",
"b  c #A07249",
"n  c #A17F48",
"m  c #A07E56",
"M  c #8C7862",
"N  c #857466",
"B  c #937362",
"V  c #827971",
"C  c #B78525",
"Z  c #AA8537",
"A  c #AD8438",
"S  c #B1863A",
"D  c #B58B3E",
"F  c #B88D3E",
"G  c #C48B35",
"H  c #C68E38",
"J  c #C88F3A",
"K  c #C88C37",
"L  c #CA913C",
"P  c #D6AD2F",
"I  c #D6AB33",
"U  c #DAAF35",
"Y  c #D9AE3C",
"T  c #D8B133",
"R  c #EEB632",
"E  c #E7BE34",
"W  c #F0B433",
"Q  c #F7C22E",
"!  c #FCD627",
"~  c #F6C431",
"^  c #F8C336",
"/  c #F6D437",
"(  c #B78C40",
")  c #B88C40",
"_  c #B89040",
"`  c #B7974B",
"'  c #A78D53",
"]  c #BA9D54",
"[  c #BDA458",
"{  c #C9AB4D",
"}  c #D3AC47",
"|  c #DAB448",
" . c #DAB752",
".. c #D8BF67",
"X. c #E3C857",
"o. c #F2DB52",
"O. c #EBD870",
"+. c #717C85",
"@. c #7A8488",
"#. c #76898F",
"$. c #788E94",
"%. c #748A9E",
"&. c #7D919D",
"*. c #7F9295",
"=. c #6C8DA5",
"-. c #6E8BA8",
";. c #728DA5",
":. c #738EAB",
">. c #7390A6",
",. c #7A95A6",
"<. c #7493AD",
"1. c #7994AD",
"2. c #7696B2",
"3. c #7A96B2",
"4. c #7B9AB3",
"5. c #7997B8",
"6. c #7798B8",
"7. c #7C9CBA",
"8. c #7698B2",
"9. c #7FA0BB",
"0. c #7FA1B5",
"q. c #888883",
"w. c #848E96",
"e. c #899194",
"r. c #84939D",
"t. c #8E949B",
"y. c #8092A6",
"u. c #849BAB",
"i. c #8B9AA7",
"p. c #909DA9",
"a. c #829CB2",
"s. c #8A9DB1",
"d. c #829EBB",
"f. c #8EA2AF",
"g. c #93A5A9",
"h. c #8BA2B5",
"j. c #83A1BD",
"k. c #8DA4BC",
"l. c #92A3B5",
"z. c #93A5BB",
"x. c #97A8BF",
"c. c #9BACBC",
"v. c #94A8B4",
"b. c #9FB0B7",
"n. c #9DB1BD",
"m. c #A1B2BD",
"M. c #859FC1",
"N. c #85A4C1",
"B. c #89A4C3",
"V. c #87AAC4",
"C. c #8CAAC5",
"Z. c #8DADCA",
"A. c #92ACC6",
"S. c #9AABC1",
"D. c #92AECB",
"F. c #98AECA",
"G. c #8EB0CA",
"H. c #92B0C7",
"J. c #93B2CD",
"K. c #9BB5CE",
"L. c #98B2C4",
"P. c #8FB5D4",
"I. c #94B5D2",
"U. c #9AB6D3",
"Y. c #96B9D4",
"T. c #9CB9D5",
"R. c #9EBBD9",
"E. c #9AB8DB",
"W. c #A1B6CE",
"Q. c #A1B7D4",
"!. c #A3BCD6",
"~. c #A1BDDA",
"^. c #A3BEDC",
"/. c #A1BFDD",
"(. c #A4BEDD",
"). c #A2BDDB",
"_. c #A3BFE0",
"`. c #A5C0DE",
"'. c #A6C1DE",
"]. c #A3C1DD",
"[. c #A8C3DF",
"{. c #ABC5DF",
"}. c #A7C1E1",
"|. c #A6C3E1",
" X c #A9C3E1",
".X c #A9C5E2",
"XX c #ACC7E6",
"oX c #AAC3E3",
/* pixels */
"                                                                                                    ",
"                                                                                                    ",
"                                                                                                    ",
"                                  T.{.~.`.`.`.`.d.j..X~.^.`.}.(.W.                                  ",
"                              z.~.}..X(.}.(. X.XB.N.`.XX^.}.XXXX[.!.                                ",
"                            >.d.B.B.C. X X~.T.T.B.j.`..X.X`.R.C.j.N.j.;.                            ",
"                        K.C.4.4.3.4.-.D.XX^.T.~.N.4.T.`.].^.C.=.3.4.3.3.j.Q.                        ",
"                    a.J.T.R.T.~..X~.A.1.~.U.J.U.7.6.U.R.U.D.<.Z.~. X~.T.R.T.K.s.                    ",
"                  h.T.T.~.T.T.^.`.}..X4.7.I.E.E.5.7.I.P.R.j.4..X`.^.R.T.R.~.R.Q.z.                  ",
"                %.=.>.;.<.U.^.`.U.R..Xk.+.e.t.e.@.@.t.w.t.+.l.oXT.I.].(.U.<.;.:.;.%.                ",
"              S.T.I.U.J.4.d.~.I.Q..Xz.V k f i q d d d q i - h l.|.R.I.~.a.3.J.I.J.U.L.              ",
"            s.K.U.R.}.^.~.:.D.].A.h.N q b b u q d f s - u s - + p.A.~.H.>.R.~.}.R.U.J.h.            ",
"          h.T.T.^.`.R.(.XXC.:.i.M k i t f f u - d f s - u f f q w O r.;.C.{.(.R.}.^.T.T.l.          ",
"          F.U.U.R.R.I.T. XU.@ h f b y t f f u - d f s - u f b t t y r @ K. XU.I.R.R.I.U.I.          ",
"          F.U.U.I.I.I.I.K.q.e y f f y t f f u - d f p - u f f > y f u # V W.I.U.I.I.I.U.Z.          ",
"          a.C.C.9.N.j.N.,.j y t f f y t f f u - d f p - u f f > y f f & o r.j.j.V.j.C.V.4.          ",
"          a.d.9.d.j.j.0.,.z y i f f y t f f u - p b p - u f f > y f f ; o &.j.j.j.j.d.j.3.          ",
"          !.oXR.}.`.R.].z.z t y f f y t f f u - p b p - u f f > y f f ; X l.(.R.(.}.~. X~.          ",
"          !. XR.}.^.T.].x.j t y b f y t f f u - f b p - u f f > y f f * X l._.T.~.}.~. X~.          ",
"          !.(.I.^.~.U.T.z.z t , b b y y f f u - f b p - u f f > y f s ; X l.U.T.^.^.I.(.~.          ",
"          U.I.U.I.I.U.U.h.B a , f f y > f f u - d s u - u s s - y f s * X h.I.U.U.I.U.U.E.          ",
"          k.C.Z.J.C.J.I.u.l 6 6 v v 8 6 v v 0 5 v 9 0 6 0 9 v 6 8 v 9 4 = u.J.I.C.J.Z.C.V.          ",
"          <.6.3.3.3.1.3.w.} R R R R R R R R R R R R R W W W R R R R R R { *.3.3.3.3.1.2.<.          ",
"          D.R.~.^.`.T.}.b.{ P I U U I I U U U I T U Y } | Y Y I I U T I ` n. XQ.(.~.T.R.J.          ",
"          K.^.U.R.].^..Xc.k t u c c u , c c f y s c g y g c c , s s s ; . c.XX(.`.~.U.^.I.          ",
"          K.E.R.].].I.].S.x t d b g d u l l d w g g g e l l l i d g s $ X S.}.U.].].R.T.J.          ",
"          D.I.I.I.I.J.Y.c.x t y f f p t f f p q d f p q p f f t p f s $ X x.E.I.I.U.I.I.G.          ",
"          C.I.U.Z.I.J.G.l.j t y f f t t f f u - p b p - u f f - y d d ; X f.Z.I.U.G.T.I.V.          ",
"          ;.2.1.<.1.<.1.%.j i y f f y t b f u - d b p - u f s 1 _ ] n ; X #.2.<.2.2.3.2.<.          ",
"          K.T.J.U.U.K.U.l.z i y f f t t b f u - d b s - u f 8 I / o...: o p.U.T.U.T.U.T.U.          ",
"          ]..X(.(.~.U.~.z.j i y b f t t f f u - d b p - u s 6 E ! / O.1 X l.].U.~.`.(.oX!.          ",
"          ~.^.T. X`.R.~.x.j i y b f t t f f u - d b p - u f < C E X.[ & X v.R.R.]..XT.(.~.          ",
"          !.E.I.U.T.U.I.z.j i y f f y t f f u - d b p - u f f - : 0 s $ X k.I.I.Y.I.J.R.~.          ",
"          K.Z.U.U.I.T.T.k.j w y s s , > f s u - s s s - u s s - y s s % o h.Y.Y.J.Y.U.J.I.          ",
"          1.4.3.3.1.4.4.$.` H K L L J K L L J G L L L G L L L G H L L G Z $.3.5.6.5.3.4.<.          ",
"          k.Z.H.H.H.C.H.g. .~ Q ~ ~ ~ ~ ~ ~ ~ ~ ~ ~ ~ ~ ~ ~ ~ ~ ~ ~ Q ^  .g.D.C.J.D.D.Z.N.          ",
"          J.^.U.~.`.^.{.m.' Z S ) ) S A ) F D A D D D A D D D A S F F 7 3 m..X^.}.^.U.^.J.          ",
"          U.^.~.`.}.R.`.c.j q t f f y t f p y - p p u - u f p - y f p $ X c.}.R.}.`.~.^.Y.          ",
"          J.I.U.R.T.J.R.c.j t y f f y t f f u q d b p - u f f > y f f $ X c.^.J.T.R.U.I.H.          ",
"          J.U.U.I.I.I.J.x.j t y f f y t f f u q d b p - u f f > y f f ; X v.I.I.I.I.U.U.Z.          ",
"          3.N.N.7.N.9.j.y.j t y b f y t f f u - d f p - u f f > y f f ; X &.N.9.N.7.B.N.8.          ",
"          d.j.d.j.N.j.j.y.j t y b f y t f f u - d f p - u f f > y f f ; X ,.N.j.d.N.d.N.7.          ",
"          !..X~.].].T.].z.j t y f f t t f f u - d b p - u f f > y f f ; X f._.T.R..X(..X~.          ",
"          !.}.~.`.^.T.].x.j t y f f y t f f u q d b p - u f f > y f f * X l.^.T.].}.(.}.R.          ",
"          !.^.J.~.R.U.U.z.j t y f f t t f f u - f b p - u f f > y f f ; o l.U.U.~.^.I.^.R.          ",
"          Q.I.I.I.I.I.I.z.z t y f f y t f f u - f b p - u f f > y f f ; X f.U.I.I.I.U.I.T.          ",
"          z.Z.J.J.Z.T.I.s.M t y f f t t f f p q d f p q p f f t t f f * o i.J.Y.C.J.J.A.C.          ",
"                                                                                                    ",
"                                                                                                    ",
"                                                                                                    "
};
