/* XPM */
static char *arhum_k4z7h[] = {
/* columns rows colors chars-per-pixel */
"36 50 210 2 ",
"   c None",
".  c #884B2B",
"X  c #925532",
"o  c #945B37",
"O  c #965A3D",
"+  c #9A6138",
"@  c #A76933",
"#  c #AA733F",
"$  c #B2743E",
"%  c #994C5A",
"&  c #AC7745",
"*  c #B17C46",
"=  c #A55C6C",
"-  c #B85A6E",
";  c #A34E76",
":  c #A24F77",
">  c #A64D74",
",  c #A74E75",
"<  c #A45077",
"1  c #A65278",
"2  c #A7577D",
"3  c #A95378",
"4  c #B95C70",
"5  c #B05A7D",
"6  c #B4587C",
"7  c #BC5A7B",
"8  c #B85B7E",
"9  c #BE6B6C",
"0  c #C45D7F",
"q  c #C06476",
"w  c #B7814D",
"e  c #BA894F",
"r  c #BB8A51",
"t  c #C99248",
"y  c #CF9E56",
"u  c #CC9F5E",
"i  c #D6A85E",
"p  c #DBAC5D",
"a  c #D8AC63",
"s  c #DCB064",
"d  c #E3B562",
"f  c #E7BA66",
"g  c #AD5C86",
"h  c #AF5E87",
"j  c #B75C81",
"k  c #B45D85",
"l  c #B85D82",
"z  c #B45F8A",
"x  c #B76189",
"c  c #B2618E",
"v  c #B5618E",
"b  c #B96088",
"n  c #BB628A",
"m  c #BE6589",
"M  c #BD648C",
"N  c #B36590",
"B  c #B76690",
"V  c #B76A94",
"C  c #BC6B95",
"Z  c #BA6D95",
"A  c #B86D96",
"S  c #BC6E97",
"D  c #BE6F98",
"F  c #B97098",
"G  c #BC739B",
"H  c #BE749C",
"J  c #C15E81",
"K  c #C56486",
"L  c #C96387",
"P  c #C16488",
"I  c #C56789",
"U  c #C96589",
"Y  c #C46B8E",
"T  c #CB688C",
"R  c #CF718F",
"E  c #C06892",
"W  c #C66F96",
"Q  c #C86B90",
"!  c #CE6C91",
"~  c #C96D94",
"^  c #D16E94",
"/  c #C0759C",
"(  c #C2779E",
")  c #CF7299",
"_  c #CD749C",
"`  c #CA7B9E",
"'  c #D27096",
"]  c #D37097",
"[  c #D5729A",
"{  c #D37498",
"}  c #D3769A",
"|  c #D6749B",
" . c #D6759C",
".. c #D7779C",
"X. c #D7789E",
"o. c #D97E99",
"O. c #D8799E",
"+. c #DA7C9F",
"@. c #C17CA1",
"#. c #C57EA3",
"$. c #CC7CA2",
"%. c #D17DA1",
"&. c #D97AA0",
"*. c #DA7CA2",
"=. c #DA7EA3",
"-. c #A7B5B2",
";. c #A8B5B1",
":. c #A9B6B1",
">. c #A8B5B2",
",. c #A9B5B2",
"<. c #A8B6B2",
"1. c #D9829D",
"2. c #C380A3",
"3. c #C980A4",
"4. c #C882A6",
"5. c #CC81A5",
"6. c #CD84A7",
"7. c #C985A9",
"8. c #C986A9",
"9. c #CB87A9",
"0. c #CE89AC",
"q. c #CE8CAE",
"w. c #CE8DAE",
"e. c #D382A6",
"r. c #D680A5",
"t. c #DB81A1",
"y. c #DE82A1",
"u. c #DF84A2",
"i. c #DC81A5",
"p. c #D984A7",
"a. c #DD83A8",
"s. c #D988AA",
"d. c #DF89AB",
"f. c #DF8DAA",
"g. c #DA8AAC",
"h. c #CE91B1",
"j. c #CF93B3",
"k. c #D790B0",
"l. c #D697B4",
"z. c #D992B3",
"x. c #DF94B3",
"c. c #DB96B6",
"v. c #D59CBC",
"b. c #D89DBC",
"n. c #E086A2",
"m. c #E189A3",
"M. c #E48BA3",
"N. c #E38AA4",
"B. c #E38CA7",
"V. c #E48CA4",
"C. c #E48DA5",
"Z. c #E58FA7",
"A. c #E089A8",
"S. c #E48DA9",
"D. c #E088AC",
"F. c #E28CAE",
"G. c #E38FAF",
"H. c #E48FAC",
"J. c #E692A9",
"K. c #E792AB",
"L. c #E693AD",
"P. c #E390B2",
"I. c #E592B1",
"U. c #E794B0",
"Y. c #E594B5",
"T. c #E897B0",
"R. c #E799B7",
"E. c #E999B1",
"W. c #EB9CB5",
"Q. c #E19EBC",
"!. c #EA9EBC",
"~. c #ECA0B8",
"^. c #EDA1BB",
"/. c #E9A7BA",
"(. c #EDA3BD",
"). c #D9A3C0",
"_. c #DAA3C1",
"`. c #DEA8C4",
"'. c #DCA8C6",
"]. c #E1A3C0",
"[. c #E0A7C4",
"{. c #EDA3C0",
"}. c #E9A6C2",
"|. c #E3A8C4",
" X c #ECA8C2",
".X c #EFA8C2",
"XX c #EBA8C4",
"oX c #EEAAC6",
"OX c #E9ACC8",
"+X c #F1ABC5",
"@X c #F2ADC7",
"#X c #F2AEC9",
"$X c #E5B5CE",
"%X c #F0B1C8",
"&X c #F3B0CA",
"*X c #F3B1CB",
"=X c #F3B2CC",
"-X c #F4B5CE",
";X c #E7BAD2",
":X c #EEBAD3",
">X c #EDBDD4",
",X c #F5BBD3",
"<X c #EFC4DA",
"1X c #F7C0D7",
"2X c #F7C2D9",
"3X c #F6C6DB",
"4X c #F3CBE0",
"5X c #F6CCE0",
"6X c #F7D2E5",
"7X c #FBD8E8",
/* pixels */
"                                                                        ",
"                                        _.q.2.G G _.                    ",
"                                    2.v.4X:XXX}.OX4X_.2.V               ",
"                                  '.;X<X3X-X(.(.%X1XOXQ.c.8.            ",
"                                q.OX,X%X~.E.K.K.E.~.+XG.G.x.q.F         ",
"                              8.c.(.W.K.C.m.1.o.o.1.f.'  .G.g.5.4.      ",
"                            4.c.~.C.u.o.o.} ~ Y m m m W } X.i.I.x.6.    ",
"                          Z 5.(.C.N.} I P I 5.8./ / / j.p.O.X.=.d.g.S   ",
"                      2.#.#.$.+.N.X.K B N H ;X5X=X=X=X7X/.t.X.X.=.d.g.N ",
"                    _.6X2X%XQ.5. .K j.5X,X%X%X#X#X#X#X#X+XK.y.O.&.i.g.N ",
"                  Z ].-X#X.X.X(.T.K 6X,X=X@X!.U.K.K.K.R.+XL.C.t.X.=.g.N ",
"                _.<X%XE.L.K.U.G.1.3X,X-X!.U.K.C.C.C.C.C.Y..XR.B.y.&.r.N ",
"              j.6X%XE.C.C.H.t.} .X,X#X!.H.C.C.n.+.+.+.+.B.Y.Y.H.u.} I 2 ",
"              b.2XT.C.C.C.%.e.R.=X=X!.L.C.C.u.+.=.G.d.W d.H.H.W.I.) 5   ",
"            '.>X@XC.C.H.s.l.|.%X+X{.H.B.u.y.A.A.n.T.L.5.$.t.m.E.G.) h   ",
"            b.2XW.C.S.g.b.>X2X#X(.H.C.n.O.i.I.L.n.C.C.!.D ) u.T.A.Q h   ",
"            8.+XC.S.G.#.$X2X%X@XW.C.M.&. .I.U.y.O.N.K.oXH ) u.~.f.8 ;   ",
"            8.+XK.P.P.C '.2X@X~.C.C.n.O. .Y.d. . .i.~.oX/ } n.L.` ;     ",
"            8.oX.XP.P.D c.=X@X~.C.C. . . . . . .+.K.~.}.8.f.C.R 8 <     ",
"        h M Y 0.%XP.P.#.$X2X@X~.C.C. . . . . .+.B.~.#XD s..XG.b 3       ",
"        c E ' I @.{.Y.C z.%X@X~.M.M. . . .y.M.K.~.%X%XB s.&.T b c       ",
"        c E | ^ I Y.P.C z.%X@X~.M.M.| | | y.L.~.@XXX8.p.=.T 6 1         ",
"        c E ' } ! i.G.e.5.Q.#X.XE.M.y. .| A.~.+XXX$.Y =. .j 3           ",
"        c b T X.a.=.=.G.$.[.1X%X.XW.N.u. .d.s.5.` P ! } W h             ",
"          x P } %._ X.i.e.].:X1X@X!.S.S.i.a._ E E T ! M v               ",
"            b U b b W X.i.%.k.%X!.P.a.a.a.&.[ ' ^ T 6 1                 ",
"            z J 4 q b _ X.| [ X.D.D.[ [ ' ' ^ ! K 8 ;                   ",
"              = o w 9 k W  .[ [ [ [ ' ^ T J 7 l h ;                     ",
"              O w w $ q b ~ [ [ [ [ T K 0 6 > ;                         ",
"            + u w $ X - L ^ ^ U L 0 0 0 >                               ",
"          & a d p X % 7 0 L L J k > > >                                 ",
"        r s f i +     > > > > >                                         ",
"      * a f p #                                                         ",
"    e a f y #                                                           ",
"  & s f y *                                                             ",
"X i d p #                                                               ",
"X t t @                                                                 ",
". . .                                                                   ",
"                                                                        ",
"                                                                        ",
"                                                                        ",
"                                                                        ",
"                  >.>.>.>.>.>.>.>.>.>.>.>.>.>.>.                        ",
"                  >.>.>.>.>.>.>.>.>.>.>.>.>.>.>.>.                      ",
"        >.>.>.>.>.>.>.>.>.>.>.>.>.>.>.>.>.>.>.>.>.>.>.>.>.>.            ",
"      >.>.>.>.>.>.>.>.>.>.>.>.>.>.>.>.>.>.>.>.>.>.>.>.>.>.>.>.          ",
"    -.>.>.>.>.>.>.>.>.>.>.>.>.>.>.>.>.>.>.>.>.>.>.>.>.>.>.>.>.          ",
"      >.>.>.>.>.>.>.>.>.>.>.>.>.>.>.>.>.>.>.>.>.>.>.>.>.>.>.            ",
"        -.>.>.>.>.>.>.>.>.>.>.>.>.>.>.>.>.>.>.>.>.>.>.>.>.              ",
"                  >.>.>.>.>.>.>.>.>.>.>.>.>.>.>.>.                      "
};
