/* XPM */
static char *auiwv_6iyow[] = {
/* columns rows colors chars-per-pixel */
"36 50 207 2 ",
"   c None",
".  c #894C2B",
"X  c #8A4D2C",
"o  c #8F522C",
"O  c #894D30",
"+  c #925631",
"@  c #995C33",
"#  c #975E38",
"$  c #9A6139",
"%  c #9A6239",
"&  c #A06436",
"*  c #B1763C",
"=  c #975341",
"-  c #985B44",
";  c #974F50",
":  c #A77243",
">  c #AC7540",
",  c #AF7B4A",
"<  c #B6754A",
"1  c #BB7B5F",
"2  c #9B4964",
"3  c #9E4971",
"4  c #9F4971",
"5  c #A24C72",
"6  c #A54D75",
"7  c #A44E75",
"8  c #AD5177",
"9  c #A65279",
"0  c #A5537A",
"q  c #A95278",
"w  c #AA537A",
"e  c #BB5E70",
"r  c #B15278",
"t  c #B35579",
"y  c #B4567B",
"u  c #B7577D",
"i  c #B45B78",
"p  c #B1597E",
"a  c #BE6378",
"s  c #B7814C",
"d  c #B7834D",
"f  c #C18E4E",
"g  c #C79451",
"h  c #C89959",
"j  c #D3A359",
"k  c #D3A35A",
"l  c #E0A54B",
"z  c #E0B05E",
"x  c #D5A961",
"c  c #D5A962",
"v  c #DFB161",
"b  c #E6B863",
"n  c #E7BB68",
"m  c #E7BC68",
"M  c #E7BC6A",
"N  c #E7BD6B",
"B  c #AC5A85",
"V  c #B05D87",
"C  c #BB5F80",
"Z  c #BD5D81",
"A  c #B45F8A",
"S  c #B2628E",
"D  c #B3638F",
"F  c #B5658F",
"G  c #B96088",
"H  c #B8628C",
"J  c #BB648D",
"K  c #BB688F",
"L  c #B36590",
"P  c #B36690",
"I  c #B86691",
"U  c #BF6891",
"Y  c #BB6C96",
"T  c #BC7199",
"R  c #BF729A",
"E  c #BE779E",
"W  c #C45F81",
"Q  c #C06286",
"!  c #C76385",
"~  c #C46587",
"^  c #C96789",
"/  c #CC678B",
"(  c #CE6B8F",
")  c #CA6B90",
"_  c #CF6D94",
"`  c #C27195",
"'  c #C77496",
"]  c #CC7097",
"[  c #CF729A",
"{  c #C8779E",
"}  c #D27197",
"|  c #D57199",
" . c #D5729A",
".. c #D5739A",
"X. c #D1769C",
"o. c #D6759C",
"O. c #D7779C",
"+. c #D67C98",
"@. c #D8789E",
"#. c #D8799F",
"$. c #D97B9F",
"%. c #DB7D9F",
"&. c #C07CA1",
"*. c #C27FA3",
"=. c #C97EA2",
"-. c #D479A1",
";. c #DA7DA2",
":. c #A7B5B2",
">. c #A8B5B1",
",. c #A9B6B1",
"<. c #A9B4B2",
"1. c #A8B5B2",
"2. c #A8B6B2",
"3. c #C280A3",
"4. c #C480A3",
"5. c #C580A5",
"6. c #CC83A6",
"7. c #C984A9",
"8. c #CC84A8",
"9. c #CC88AB",
"0. c #CB8EAF",
"q. c #D780A0",
"w. c #D185A3",
"e. c #D483A7",
"r. c #DC83A3",
"t. c #DE84A1",
"y. c #DB80A5",
"u. c #DF8CA7",
"i. c #D186AA",
"p. c #D785A9",
"a. c #DD83A8",
"s. c #DE86AA",
"d. c #D489AC",
"f. c #D18DAF",
"g. c #DA88AB",
"h. c #D591B2",
"j. c #D196B6",
"k. c #D993B4",
"l. c #DB97B7",
"z. c #DF97B5",
"x. c #DF9CBA",
"c. c #E086A4",
"v. c #E38AA3",
"b. c #E18AA4",
"n. c #E38BA4",
"m. c #E089A7",
"M. c #E48CA4",
"N. c #E48DA5",
"B. c #E48EA5",
"V. c #E48CA6",
"C. c #E18BAB",
"Z. c #E58FA8",
"A. c #E48EAB",
"S. c #E28DAF",
"D. c #E691A9",
"F. c #E090AF",
"G. c #E693AD",
"H. c #E894AC",
"J. c #E896AF",
"K. c #E48FB0",
"L. c #E491B2",
"P. c #E695B4",
"I. c #EA9AB4",
"U. c #E99CB6",
"Y. c #EC9EB7",
"T. c #E99BB9",
"R. c #EC9FBA",
"E. c #E5A0BB",
"W. c #EDA2BA",
"Q. c #EBA0BE",
"!. c #EEA2BC",
"~. c #EEA4BE",
"^. c #EFA6BF",
"/. c #D9A3C0",
"(. c #DDA2C0",
"). c #DDA7C3",
"_. c #E2A3C0",
"`. c #E6A2C0",
"'. c #E9A4C1",
"]. c #EDA5C2",
"[. c #EDA7C3",
"{. c #E2A9C5",
"}. c #E0ACC7",
"|. c #E9A9C5",
" X c #EEAAC6",
".X c #E2AECA",
"XX c #F0A8C1",
"oX c #F0A9C4",
"OX c #F1ABC6",
"+X c #F1ADC7",
"@X c #F2AEC9",
"#X c #E5B6CF",
"$X c #EDB6CF",
"%X c #F3B0CA",
"&X c #F3B2CC",
"*X c #F3B4CE",
"=X c #F4B6CF",
"-X c #E7BAD1",
";X c #EABAD3",
":X c #F5B9D2",
">X c #F5BED5",
",X c #EEC5DB",
"<X c #F6C3DA",
"1X c #F0C6DA",
"2X c #F7C7DD",
"3X c #FACEE1",
"4X c #FCD4E6",
/* pixels */
"                                                                        ",
"                                                                        ",
"                                                                        ",
"                                                                        ",
"                                          0.E E E                       ",
"                                        -X(.k.f.f.-X                    ",
"                                    ).#X2X:XXXXX*X2X{.h.i.5.            ",
"                                  ).4X3X%X^.J.J.^.OX%X[.[.f.7.          ",
"                                9.&X^.G.B.B.B.B.B.G.XX@.@.R.h.Y S       ",
"                              f.XXB.m.m.m.%.( ~ ~ ~ ~ ^ ..@.s.T.z.4.    ",
"                          P 8.[.D.B.@.( ^ ^ ' T F F F =.-.@.@.a.S.p.P   ",
"                      *.3.*.=.s.m.@.^ J F T }.;X`.`.`.1XU.@.@.@.y.s.e.S ",
"                    /.,X$X|.l.=.O.^ =.#X|.'.*X=X&X&X&X:XXXZ.%.@.@.a.g.F ",
"                  T _.>X=XOX'.z.C.! ;X<X=X@X[.R.U.U.U.Q.OXJ.m.%.@.y.g.F ",
"                  (. X!.Y.I.U.P.u.E.2X=X[.Y.G.Z.B.B.B.G.Q.R.J.m.%.;.p.F ",
"              j.;X<X^.D.B.Z.m.q.F.3X%X[.P.Z.B.m.t.t.t.c.Z.Q.T.Z.t.O.] V ",
"              j.4XW.D.B.B.u.q.q.&X&XOXP.Z.B.m.t.@.;.;.X.m.K.K.G.m.} C 9 ",
"              .X%XB.B.Z.u.6.h.&X@XOXK.Z.m.m.t.;.t.T.L.T p.m.m.Y.P.] 9   ",
"            }.3X^.B.B.F.f.;X2X%X^.L.B.m.@.@.L.I.m.B.B.U.T [ t.Z.c.] S   ",
"            f.+XZ.B.K.6.#X<X*X@XW.B.m.%.O.S.J.c.%.B.B.[.T [ t.R.F.Q 9   ",
"            9.OXB.L.L.Y }.<X+XW.B.B.v.@.O.T.S.O.O.;.Y. XT [ t.Y.w.9     ",
"            9.@XW.L.L.Y l.=X+XW.B.B.@.O.O.;.@.O.@.B.Y. X6.t.v.+.Q 9     ",
"          K ' l.+XL.L.{ {.>X+XW.B.B.O.O.O.O.O.@.c.I.OX6.d.T.Z.~ p       ",
"        S U _ ' h.T.L.T (.:X+XW.B.B.O.O.O.%.t.B.I.OX%XI g.S.O.G B       ",
"        S U ..) ` T.L.Y k.%X+XW.B.B.O.O.O.t.D.I.XX+Xx.{ y.} Q p         ",
"        S U ..../ s.S.{ i.'.@X^.J.B.%.O.O.c.Y.OX Xd.` a.@.Z p           ",
"        S J ( O.@.@.s.S.{ l.=X@X!.D.v.%.O.C.E.`.k.G ! ..[ w             ",
"          H ~ O.g.-.@.s.i.}.<X:X@X!.B.B.;.a.{ I J ^ } ) H               ",
"            J ) F I -.@.a.i.).4XOXL.K.K.S.y...[ } _ ! 9                 ",
"            A W W W A -.@.....@.K.K..........._ ^ Z 7                   ",
"              i = 1 a J [ @.....@.@.....( ^ ! Q V w                     ",
"              - , s < a J ] ......../ ! W t 7 w                         ",
"            # s s * & e Q _ } ( ( ^ W W t 5                             ",
"          : h v j @ ; i W / / W G 8 8 8 7                               ",
"        : h m v f O 2 r t u u y B 4 4 4                                 ",
"      $ h m v g .     5 4 4 4 5                                         ",
"    $ h n v g O                                                         ",
"  . x m b f .                                                           ",
"+ x b z > o                                                             ",
"+ j l *                                                                 ",
"X @ @ o                                                                 ",
"                                                                        ",
"                  1.1.1.1.1.1.1.1.1.1.1.1.1.1.1.                        ",
"                  1.1.1.1.1.1.1.1.1.1.1.1.1.1.1.1.                      ",
"        1.1.1.1.1.1.1.1.1.1.1.1.1.1.1.1.1.1.1.1.1.1.1.1.1.1.            ",
"      1.1.1.1.1.1.1.1.1.1.1.1.1.1.1.1.1.1.1.1.1.1.1.1.1.1.1.1.          ",
"    :.1.1.1.1.1.1.1.1.1.1.1.1.1.1.1.1.1.1.1.1.1.1.1.1.1.1.1.1.          ",
"      1.1.1.1.1.1.1.1.1.1.1.1.1.1.1.1.1.1.1.1.1.1.1.1.1.1.1.            ",
"        :.1.1.1.1.1.1.1.1.1.1.1.1.1.1.1.1.1.1.1.1.1.1.1.1.              ",
"                  1.1.1.1.1.1.1.1.1.1.1.1.1.1.1.1.                      "
};
