/* XPM */
static char *ancdv_oz2cb[] = {
/* columns rows colors chars-per-pixel */
"36 50 212 2 ",
"   c None",
".  c #884B2B",
"X  c #8B502F",
"o  c #8B4D35",
"O  c #915530",
"+  c #955A34",
"@  c #985F3A",
"#  c #9A6137",
"$  c #9C6338",
"%  c #A76933",
"&  c #A0683E",
"*  c #A66E3C",
"=  c #AE723B",
"-  c #AA7340",
";  c #AF7B49",
":  c #B57E46",
">  c #9B4A64",
",  c #9F4972",
"<  c #AD5961",
"1  c #A55C6C",
"2  c #A04C73",
"3  c #A14D74",
"4  c #A74D74",
"5  c #A74E75",
"6  c #A44F76",
"7  c #A35177",
"8  c #A45077",
"9  c #A35178",
"0  c #AD5278",
"q  c #AA567A",
"w  c #BB5E70",
"e  c #B3587D",
"r  c #B65A7E",
"t  c #BD5A7D",
"y  c #B95E7D",
"u  c #BE6A6B",
"i  c #BE6D70",
"p  c #B8834E",
"a  c #BA894F",
"s  c #BB8A51",
"d  c #CE9242",
"f  c #C4914F",
"g  c #CE9A50",
"h  c #C7985A",
"j  c #D09E56",
"k  c #D7A85D",
"l  c #E4B15A",
"z  c #DCB065",
"x  c #DFB364",
"c  c #E6BA65",
"v  c #E8BF6F",
"b  c #AA5781",
"n  c #AD5C86",
"m  c #B05C85",
"M  c #B65E85",
"N  c #B86183",
"B  c #BA6086",
"V  c #B5608A",
"C  c #B1618C",
"Z  c #B1618E",
"A  c #B2628E",
"S  c #B9628A",
"D  c #BF6389",
"F  c #BF658B",
"G  c #B36590",
"H  c #B96893",
"J  c #B96E97",
"K  c #BE6D96",
"L  c #B97098",
"P  c #BF7199",
"I  c #BE7399",
"U  c #C45E80",
"Y  c #C76184",
"T  c #C76587",
"R  c #CC668A",
"E  c #CA678C",
"W  c #C3698C",
"Q  c #C66A8D",
"!  c #CB688B",
"~  c #CC708F",
"^  c #C26A93",
"/  c #CE6C91",
"(  c #C86B94",
")  c #C76F98",
"_  c #D16D94",
"`  c #D36F96",
"'  c #C87092",
"]  c #CF7095",
"[  c #C5739B",
"{  c #C5759E",
"}  c #CF729A",
"|  c #C2799F",
" . c #CC7B9C",
".. c #D27592",
"X. c #D47896",
"o. c #D5739A",
"O. c #D47499",
"+. c #D3769C",
"@. c #D6759C",
"#. c #D7779D",
"$. c #D6769E",
"%. c #D77F9B",
"&. c #D7789E",
"*. c #D87A9F",
"=. c #C97AA0",
"-. c #CB7DA3",
";. c #D57DA2",
":. c #D97CA0",
">. c #DB7EA0",
",. c #DA7EA3",
"<. c #A7B5B2",
"1. c #A8B5B1",
"2. c #A9B6B1",
"3. c #A8B5B2",
"4. c #A9B5B2",
"5. c #A8B6B2",
"6. c #C780A4",
"7. c #C784A6",
"8. c #CB81A5",
"9. c #C882A6",
"0. c #C984A7",
"q. c #CD84A7",
"w. c #CB87AA",
"e. c #CE84A8",
"r. c #CE87AA",
"t. c #CB89AB",
"y. c #CC8BAC",
"u. c #CD8DAE",
"i. c #DD82A1",
"p. c #DF84A2",
"a. c #DD82A6",
"s. c #D685A8",
"d. c #DD83A8",
"f. c #D987AA",
"g. c #DF86A9",
"h. c #D189AA",
"j. c #D78AAC",
"k. c #DC8CAB",
"l. c #DB88AC",
"z. c #D190AE",
"x. c #CF93B3",
"c. c #D093B3",
"v. c #D891B1",
"b. c #DA96B6",
"n. c #DF95B5",
"m. c #D698B7",
"M. c #D59CBC",
"N. c #DA9CBB",
"B. c #E086A2",
"V. c #E48BA3",
"C. c #E18AA6",
"Z. c #E48CA4",
"A. c #E48DA5",
"S. c #E48EA5",
"D. c #E48FA8",
"F. c #E48DAB",
"G. c #E48FAA",
"H. c #E089AC",
"J. c #E28CAC",
"K. c #E591A8",
"L. c #E692AA",
"P. c #E490AC",
"I. c #E693AD",
"U. c #E896AF",
"Y. c #E28EB0",
"T. c #E38FB1",
"R. c #E390B2",
"E. c #E593B2",
"W. c #E695B5",
"Q. c #E999B2",
"!. c #EB9BB4",
"~. c #E898B7",
"^. c #EB9DB6",
"/. c #E29EBC",
"(. c #E99DBC",
"). c #ECA0B9",
"_. c #EDA2BB",
"`. c #EEA3BE",
"'. c #ECA7BE",
"]. c #D9A3C1",
"[. c #DBA2C0",
"{. c #DAA3C1",
"}. c #DFA8C4",
"|. c #DDAAC4",
" X c #E8A4C2",
".X c #EAA7C3",
"XX c #EFA5C0",
"oX c #EEAAC6",
"OX c #E0AEC8",
"+X c #E9AEC9",
"@X c #F0A9C3",
"#X c #F1ACC6",
"$X c #F2ADC7",
"%X c #F3AFCA",
"&X c #E4B4CD",
"*X c #EEB0CA",
"=X c #E8B5CE",
"-X c #F2B2C8",
";X c #F3B1CB",
":X c #F3B2CC",
">X c #F4B6CF",
",X c #EFBED5",
"<X c #F2B9D2",
"1X c #F5BBD3",
"2X c #F7C0D7",
"3X c #F0C2D8",
"4X c #F8C4DA",
"5X c #F9C7DD",
"6X c #F3CBE0",
"7X c #F4CEE1",
"8X c #F8D3E5",
"9X c #FCD7E9",
/* pixels */
"                                        |.c.0.| | |.                    ",
"                                    7.M.6X<X X X+X6X[.7.J               ",
"                                  [.7X8X2X-X^.^.#X<X*X X Xw.            ",
"                                y.+X1X-X).Q.L.L.Q.).#XT.T.n.7.L         ",
"                              y./.~.U.L.S.B.X.....X.%./ @.g.k.j.h.      ",
"                            8.b.).S.p.%.%.X.' W F F F ' +.&.a.E.n.q.    ",
"                          J 8.~.S.p.] W D W z.m.e.e.e.[.k.*.&.,.d.l.{   ",
"                      x.u.t.e.;.p.O.Q | | 6.=X5X:X:X:X8X'.i.*.&.,.g.l.G ",
"                    [.8X4X:X/.6.O.T t.7X1X:X:X:X:X:X:X-X@XL.i.&.*.a.l.G ",
"                  |  X%X@XXXXXXXW.~ 9X1X%X@X~.P.S.S.S.W.oXU.L.i.*.,.l.G ",
"                [.7X-XU.L.L.P.H.%.8X>X:X~.P.G.S.S.S.S.G.E.@X(.G.p.*.;.G ",
"              x.8X-XQ.S.S.P.i.X. X1X%X(.P.S.S.B.,.,.,.,.C.W.W.G.p.O.W b ",
"              [.1XL.S.S.S. .e.'.:X:X~.P.S.S.i.*.,.~.T.K k.G.G.).W.] q   ",
"            OX3X#XS.S.P.f.N.+X-X@X(.G.S.i.,.H.J.C.U.P.s.=.,.B.U.J.} n   ",
"            N.2XQ.S.G.j.N.,X2X%X).P.S.p.&.d.E.G.p.S.S.).P } p.Q.C.Q n   ",
"            t.@XS.G.T.| &X4X%X@XQ.S.V.,.@.W.P.,.*.B.P.oXP } p.).k.r     ",
"            t.#XL.R.R.K |.2X#X).S.S.B.*.@.E.H.@.@.a.).oX| +.B.P. .9     ",
"          P 8. X@XR.R.P N.>X#X).S.S.@.@.@.@.@.@.,.P.)./.e.G.S.~ r 7     ",
"        Z S Q 0.oXE.R.6.&X2X#X).S.S.@.@.@.@.@.i.L.`.-XH f.XXH.B 8       ",
"        Z ^ _ Q 6.`.W.K b.:X#X).V.V.@.@.@.i.V.L.).%X-XH f.,./ S Z       ",
"        Z ^ @._ U T.T.H v.-X#X).V.V.@.@.@.i.U.XX-X X| T.*.T e           ",
"        Z F _ o._ ,.J.l.=.n.%X#X^.V.B.@.o.J.XX%X XK T *.@.e 6           ",
"        Z S ! &.d.,.,.J.-.|.2X%X@X~.V.p.@.H.j.8.=.D / O.^ m             ",
"          V D ] [ ) &.,.s.m.&X5X#X~.G.G.g.a.} ( ( / ! M m               ",
"            S T B S ) @.,.;.v.*X(.T.d.d.d.*.o._ _ E e 6                 ",
"            V y < i N ) +.@.o.@.d.d.o.o._ / / Q D r 8                   ",
"              1 + p u N ) +.o.o.o.o._ _ R U t r n 3                     ",
"              & p : = w B ( _ _ _ _ T U t 0 2                           ",
"            @ h p = + w T _ _ R R U U U 6                               ",
"        X ; v c c o > t U Y Y t b , , ,                                 ",
"        s z c k $     6 6 6 6 6                                         ",
"    X a z c k #                                                         ",
"    a k c j -                                                           ",
"X a z c f *                                                             ",
"O k l g *                                                               ",
"O f d %                                                                 ",
". . .                                                                   ",
"                                                                        ",
"                                                                        ",
"                                                                        ",
"                                                                        ",
"                                                                        ",
"                  3.3.3.3.3.3.3.3.3.3.3.3.3.3.3.                        ",
"                  3.3.3.3.3.3.3.3.3.3.3.3.3.3.3.3.                      ",
"        3.3.3.3.3.3.3.3.3.3.3.3.3.3.3.3.3.3.3.3.3.3.3.3.3.3.            ",
"      3.3.3.3.3.3.3.3.3.3.3.3.3.3.3.3.3.3.3.3.3.3.3.3.3.3.3.3.          ",
"    <.3.3.3.3.3.3.3.3.3.3.3.3.3.3.3.3.3.3.3.3.3.3.3.3.3.3.3.3.          ",
"      3.3.3.3.3.3.3.3.3.3.3.3.3.3.3.3.3.3.3.3.3.3.3.3.3.3.3.            ",
"        <.3.3.3.3.3.3.3.3.3.3.3.3.3.3.3.3.3.3.3.3.3.3.3.3.              ",
"                  3.3.3.3.3.3.3.3.3.3.3.3.3.3.3.3.                      "
};
