/* XPM */
static char *atj6n_bo9wt[] = {
/* columns rows colors chars-per-pixel */
"36 50 210 2 ",
"   c None",
".  c #884C2B",
"X  c #894C2C",
"o  c #8A4E2E",
"O  c #91552F",
"+  c #995C35",
"@  c #9A6138",
"#  c #A96B33",
"$  c #AF763F",
"%  c #985B44",
"&  c #974F50",
"*  c #A77142",
"=  c #A77244",
"-  c #B3784A",
";  c #9E4971",
":  c #B95C6F",
">  c #A34F76",
",  c #A54E75",
"<  c #A64F76",
"1  c #A35077",
"2  c #AC5076",
"3  c #AE5177",
"4  c #AD5278",
"5  c #AB547B",
"6  c #AB557C",
"7  c #A95C79",
"8  c #BA5976",
"9  c #B3567A",
"0  c #B65C7F",
"q  c #C06476",
"w  c #B2804A",
"e  c #B88548",
"r  c #B8824F",
"t  c #D79A45",
"y  c #C79451",
"u  c #C19156",
"i  c #CA9A57",
"p  c #D2A35D",
"a  c #D9AB60",
"s  c #DEAF60",
"d  c #E7BB67",
"f  c #A85780",
"g  c #AD5B86",
"h  c #AC5C84",
"j  c #B15B82",
"k  c #B85C82",
"l  c #BC5E80",
"z  c #BD5E82",
"x  c #B55F8A",
"c  c #B0608A",
"v  c #B2618E",
"b  c #B7628C",
"n  c #B7658E",
"m  c #BC6289",
"M  c #B8628C",
"N  c #BB648D",
"B  c #B46590",
"V  c #B86691",
"C  c #B66A94",
"Z  c #BF6891",
"A  c #B86994",
"S  c #BC6B95",
"D  c #B96D96",
"F  c #B96E97",
"G  c #BF7197",
"H  c #BC739B",
"J  c #C35F81",
"K  c #C66083",
"L  c #C66387",
"P  c #C66585",
"I  c #C56787",
"U  c #C76788",
"Y  c #CB668A",
"T  c #CA698B",
"R  c #CD688D",
"E  c #C56D90",
"W  c #C96C93",
"Q  c #CE6D91",
"!  c #CB6E95",
"~  c #D26F96",
"^  c #C77496",
"/  c #CF7197",
"(  c #C0749B",
")  c #C1749B",
"_  c #CA739B",
"`  c #CF739B",
"'  c #D17390",
"]  c #D57199",
"[  c #D5729A",
"{  c #D4759A",
"}  c #D6759C",
"|  c #D7769D",
" . c #D6789C",
".. c #D7789E",
"X. c #D8799E",
"o. c #DB7D9F",
"O. c #C57BA0",
"+. c #C17DA2",
"@. c #C17DA3",
"#. c #CB7BA1",
"$. c #D479A1",
"%. c #D17DA3",
"&. c #D97BA0",
"*. c #DA7EA3",
"=. c #A7B5B2",
"-. c #A8B5B1",
";. c #A9B6B1",
":. c #A8B5B2",
">. c #A9B5B2",
",. c #A8B6B2",
"<. c #C280A3",
"1. c #C280A4",
"2. c #C580A5",
"3. c #C781A4",
"4. c #CF81A4",
"5. c #CB86A9",
"6. c #C889AB",
"7. c #CC88AB",
"8. c #CD8AAB",
"9. c #D480A3",
"0. c #DC80A0",
"q. c #DE83A1",
"w. c #DC80A3",
"e. c #DF86A0",
"r. c #DE84A3",
"t. c #DC82A6",
"y. c #D985A6",
"u. c #DF88A5",
"i. c #D185A8",
"p. c #D487AB",
"a. c #D786AA",
"s. c #D887AB",
"d. c #DE85A9",
"f. c #DF88AB",
"g. c #DB89AC",
"h. c #DE8DAE",
"j. c #DF90AE",
"k. c #D48FB0",
"l. c #CF90B0",
"z. c #D591B2",
"x. c #D792B2",
"c. c #D094B6",
"v. c #D991B3",
"b. c #D49AB9",
"n. c #DB98B8",
"m. c #DF9FBD",
"M. c #E289A4",
"N. c #E08BA7",
"B. c #E48CA4",
"V. c #E48DA5",
"C. c #E48EA5",
"Z. c #E58FA7",
"A. c #E48EAA",
"S. c #E089AD",
"D. c #E38DAF",
"F. c #E691A9",
"G. c #E490AD",
"H. c #E593AE",
"J. c #E895AD",
"K. c #E390B2",
"L. c #E491B3",
"P. c #E694B1",
"I. c #E097B4",
"U. c #E797B5",
"Y. c #E898B1",
"T. c #EA9BB4",
"R. c #EC9EB7",
"E. c #E798B8",
"W. c #E99CB9",
"Q. c #E99CBB",
"!. c #D8A1BF",
"~. c #E8A2BA",
"^. c #EDA1BA",
"/. c #EDA1BC",
"(. c #EDA3BD",
"). c #D9A3C0",
"_. c #DCA8C4",
"`. c #E4A3C0",
"'. c #EBA3C1",
"]. c #E9A7C3",
"[. c #EEA6C1",
"{. c #E3A9C6",
"}. c #E1ACC7",
"|. c #E7AEC7",
" X c #EFA9C2",
".X c #E8AAC6",
"XX c #EEAAC6",
"oX c #EFACC7",
"OX c #F1AAC4",
"+X c #F2ADC7",
"@X c #F2AEC9",
"#X c #E3B0CA",
"$X c #EDB6CF",
"%X c #F3B0CA",
"&X c #F3B1CA",
"*X c #F3B2CC",
"=X c #F3B4CD",
"-X c #E6B7D0",
";X c #E9BAD2",
":X c #F5B7D1",
">X c #F5BAD2",
",X c #F6BFD6",
"<X c #EBC2D9",
"1X c #ECC1D8",
"2X c #EEC5DB",
"3X c #F6C1D4",
"4X c #F6C4DA",
"5X c #F4CADF",
"6X c #F9C9DD",
"7X c #F9CDE1",
/* pixels */
"                                                                        ",
"                                                                        ",
"                                                                        ",
"                                          6.+.H H                       ",
"                                    6.!.<X|.m.n.m.<X!.+.C               ",
"                                    _.-X5X>X X X=X4X{.x.7.2.            ",
"                                l.{.6X3X X^.J.J.R.[.@XW.W.x.7.          ",
"                                k.OX^.F.C.C.e.e.e.N.T.{  .U.k.O.)       ",
"                              7.OXC.C.C.C.w.Q P P P P U {  .f.^.I.<.    ",
"                          C 5.[.C.C.{ T P P O.O.F F F 5.9. . .*.f.g.A   ",
"                      1.<.+.#.w.N.X.U N B G #X4XXXXXXX7X~.*. . .*.f.p.n ",
"                    ).2X$X].n.#. .T 2.-X.X].=X:X*X*X*X>X XA.w. .&.t.g.B ",
"                  F `.>X&XOX[.~.G.P 5X,X=X+X(.U.J.J.J.W.oXJ.C.w. .*.g.B ",
"                !.#XoXR.Y.Y.T.P.y.|.4X:X'.T.G.C.C.C.C.G.W.(.U.N.w.&.y.B ",
"              c.1X3X(.F.C.A.u.&.I.6X&X[.P.C.C.N.w.w.w.e.A.W.E.A.e. .! h ",
"              b.7XT.F.C.C.y.9.N.*X*X'.P.C.C.N.w.&.f.t._ N.G.G.Y.A./ 0 f ",
"              #X&XC.C.C.N.4.x.*X@XoXG.C.N.N.e.*.t.W.P.) p.u.C.R.U./ 6   ",
"            _.6X^.C.C.h.k.;X6X&X(.K.C.N.X.&.L.P.N.C.C.W.G ` e.F.u.! c   ",
"            7.OXC.C.K.2.-X4X*X@XR.C.C.&.} L.P.w.X.C.C.XX) ` w.^.j.z >   ",
"            7.OXC.K.K.G #X4X+X(.C.C.C.&.} E.D.} } w.R.XX) ` w.R.i.1     ",
"            5.@X[.K.K.S v.&X+X^.C.C.} } } } } } X.F.R.oX5.u.C.' k 1     ",
"          n E k.@XK.K.O.#X,X+X^.C.C.} } } } } o.C.R.+X) p.(.D.m 5       ",
"        v Z Q ^ x.W.L.) m.:X+X^.C.C.} } } o.w.C.T.OX&XV s.D. .m f       ",
"        v Z [ Q E E.L.S v.&X+X^.C.C.} } } w.F.R.OXXXx.%.*.Q z j         ",
"        v Z [ [ T d.D.#.i.'.@X[.J.C.o.} } u.R.OXXXp.G t. .z 6           ",
"        v N R } *.&.t.D.#.m.>X&X[.J.N.w.} S.I.v.p.m T [ ! 5             ",
"          M L } s.$. .d.i.}.4X:X+X(.C.C.*.d._ V N Y ~ W M               ",
"            b T x b `  .t.4.n.4X[.K.S.S.S.*.[ [ ~ Q z >                 ",
"            x J J J b $.&.{  .t.L.D.} } } } [ ~ Y z <                   ",
"              7 o r q x _ X.[ [ [ [ [ [ R K J z g 1                     ",
"              % - r - q m ! [ [ [ [ R L K 9 < 5                         ",
"            @ u r $ + : L Q ~ R Y K J J 3 <                             ",
"          = i s p + & 8 K Y Y J k 3 3 3 <                               ",
"        w p d a $     3 3 3 3 4                                         ",
"      * p d s e o       ; ; ;                                           ",
"    @ i d s y .                                                         ",
"  @ a d a e .                                                           ",
"O a d d $ o                                                             ",
"O i t #                                                                 ",
"o O O                                                                   ",
"                                                                        ",
"                                                                        ",
"                  :.:.:.:.:.:.:.:.:.:.:.:.:.:.:.                        ",
"                  :.:.:.:.:.:.:.:.:.:.:.:.:.:.:.:.                      ",
"        :.:.:.:.:.:.:.:.:.:.:.:.:.:.:.:.:.:.:.:.:.:.:.:.:.:.            ",
"      :.:.:.:.:.:.:.:.:.:.:.:.:.:.:.:.:.:.:.:.:.:.:.:.:.:.:.:.          ",
"    =.:.:.:.:.:.:.:.:.:.:.:.:.:.:.:.:.:.:.:.:.:.:.:.:.:.:.:.:.          ",
"      :.:.:.:.:.:.:.:.:.:.:.:.:.:.:.:.:.:.:.:.:.:.:.:.:.:.:.            ",
"        =.:.:.:.:.:.:.:.:.:.:.:.:.:.:.:.:.:.:.:.:.:.:.:.:.              ",
"                  :.:.:.:.:.:.:.:.:.:.:.:.:.:.:.:.                      "
};
