/* XPM */
static char *asent_ycrca[] = {
/* columns rows colors chars-per-pixel */
"50 50 148 2 ",
"   c None",
".  c #000101",
"X  c #050B0B",
"o  c #071212",
"O  c #091615",
"+  c #0B1B1A",
"@  c #121E1D",
"#  c #131717",
"$  c #0D2424",
"%  c #0F2929",
"&  c #122222",
"*  c #1B2121",
"=  c #122B2B",
"-  c #12302F",
";  c #133232",
":  c #1B3534",
">  c #173D3D",
",  c #1C3D3D",
"<  c #153837",
"1  c #262E2E",
"2  c #2E3939",
"3  c #303B3B",
"4  c #18403F",
"5  c #1A4545",
"6  c #1C4B4B",
"7  c #1F5352",
"8  c #274C4B",
"9  c #284D4D",
"0  c #244545",
"q  c #3A4848",
"w  c #2C5554",
"e  c #235D5C",
"r  c #2E5959",
"t  c #355F5E",
"y  c #256463",
"u  c #276867",
"i  c #286C6C",
"p  c #276969",
"a  c #386C6C",
"s  c #3A6060",
"d  c #2C7574",
"f  c #2F7D7C",
"g  c #3D7675",
"h  c #3F7878",
"j  c #435252",
"k  c #495A5A",
"l  c #4F6161",
"z  c #476B6B",
"x  c #4C6D6C",
"c  c #516464",
"v  c #556969",
"b  c #586D6D",
"n  c #477271",
"m  c #417D7C",
"M  c #5C7272",
"N  c #627A7A",
"B  c #F83718",
"V  c #EC4428",
"C  c #B57D6C",
"Z  c #D85841",
"A  c #CE634D",
"S  c #42807F",
"D  c #AF8475",
"F  c #F6D77E",
"G  c #318584",
"H  c #348B8A",
"J  c #328887",
"K  c #35908F",
"L  c #369291",
"P  c #389796",
"I  c #399897",
"U  c #3A9A99",
"Y  c #448483",
"T  c #4A8E8D",
"R  c #4B908F",
"E  c #4D9493",
"W  c #4F9897",
"Q  c #529E9D",
"!  c #708C8C",
"~  c #759292",
"^  c #7C9A9A",
"/  c #7A9797",
"(  c #53A09F",
")  c #55A4A4",
"_  c #5AADAC",
"`  c #5DB3B2",
"'  c #5FB8B7",
"]  c #61BCBB",
"[  c #60B8B7",
"{  c #79BCB8",
"}  c #61F39F",
"|  c #64C0BF",
" . c #67DABB",
".. c #64E4AF",
"X. c #2CFCFB",
"o. c #33F7F6",
"O. c #58DAD9",
"+. c #66C4C3",
"@. c #68C8C7",
"#. c #67CDCD",
"$. c #6ACDCC",
"%. c #68C7C7",
"&. c #72C4C2",
"*. c #7BCDC2",
"=. c #69D5C5",
"-. c #6CD0CE",
";. c #67D6C0",
":. c #73D0CB",
">. c #60D4D3",
",. c #6DD2D1",
"<. c #50E0DF",
"1. c #40ECEB",
"2. c #47E7E6",
"3. c #50E1E0",
"4. c #979C92",
"5. c #A58E81",
"6. c #89ABA8",
"7. c #81B3AE",
"8. c #93B6B6",
"9. c #99BDBD",
"0. c #83CEBD",
"q. c #93CFB5",
"w. c #A3D0AC",
"e. c #ABD1A7",
"r. c #B5D2A2",
"t. c #CDD495",
"y. c #D4D491",
"u. c #F3D780",
"i. c #E8D686",
"p. c #9DC2C2",
"a. c #A9D1D1",
"s. c #B2DDDD",
"d. c #B7E2E2",
"f. c #BAE7E7",
"g. c #BDEAEA",
"h. c #C1EFEF",
"j. c #C6F5F5",
"k. c #C3F2F2",
"l. c #CBFBFB",
"z. c #CBFCFC",
"x. c #CCFDFD",
"c. c #CDFEFE",
"v. c #CEFFFF",
"b. c #CFFFFF",
"n. c #D0FFFF",
"m. c #D1FFFF",
"M. c #D2FFFF",
"N. c #D3FFFF",
/* pixels */
"                                                                                                    ",
"                                                                                                    ",
"                                                                                                    ",
"              . . . . . . . . . . . . . . . . . . . . . . . . . . . . . . .                         ",
"            o > 4 > 4 > o X 9 w w w w w w w w w w w w w w w w w w w w w w w +                       ",
"          . O H U U I L = & ] $.$.@.%.%.%.%.%.%.%.%.%.%.%.%.%.%.%.%.@.$.$.] = .                     ",
"        . 7 d P U U e = g Q %.$.-.g : : : : : : : : : : : : : : : : g $.$.%.Q g .                   ",
"        . p U f G U 5 . E ,.$.] ) s 1 1 1 1 1 1 1 1 1 1 1 1 1 1 1 1 t ) ] $.,.E . .                 ",
"        . i H O = U 5 . E -.,.Y . ! k.h.h.h.h.h.h.h.h.h.h.h.h.h.h.k.~ . m ,.-.E . .                 ",
"        . 5 e > 5 e = . E +.Y n l 9.n.b.b.b.b.b.b.b.b.b.b.b.b.b.b.n.p.l n Y +.E . .                 ",
"        . . O H i . . . E _ X c b.b.b.b.b.l.b.b.b.b.b.b.b.b.b.l.l.b.b.b.v X _ W . .                 ",
"        . 6 y ; > p ; . E _ X c b.b.b.n.a.q / b.b.b.b.b.b.b.j.b c k.b.b.v X _ W . .                 ",
"        . y f O ; H > . E _ X c b.b.b.n.p.@ N b.b.b.b.b.b.b.k.q 3 g.b.b.v X _ W . .                 ",
"        . X $ f y O X . E _ X c b.b.b.b.j.s.g.b.b.b.b.b.b.b.b.f.d.b.b.b.v X _ W . .                 ",
"        . $ 5 L f < O . E _ X c b.b.b.b.b.b.b.b.b.b.b.b.b.b.b.b.n.b.b.b.v X _ W . .                 ",
"        . u U P I U 5 . E _ X c b.b.b.b.b.z.b.b.b.b.b.b.b.b.b.b.b.b.b.b.v X _ W . .                 ",
"        . $ ; - 6 I 5 . E _ X c b.b.b.n.a.j ^ n.b.b.b.b.b.n.j.M b k.b.b.v X _ W . .                 ",
"        . X X X ; P 5 . E _ X c b.b.b.n.p.# b f.f.f.f.f.f.f.s.2 2 g.b.b.v X _ W . .                 ",
"        . e J J H U 5 . E _ X c n.b.b.b.j.s.! * * * * * * * 1 8.d.z.b.n.v X _ W . .                 ",
"        . 5 p y d U 5 . E ] 9 x 6.s.b.b.b.n.8.j j j j j j j k d.n.b.s.6.x 8 ' E . .                 ",
"        . . . . = P 5 . E $.$.m . ~ n.b.b.b.b.z.l.l.z.l.z.z.z.b.b.n./ . h $.$.E . .                 ",
"        . 5 y y d U 5 . E -.$._ Y z k k k k k k k k k k k k k k k k z Y _ $.-.E . .                 ",
"        . y L K L U 5 . E $.$.$.,.t X X X X X X X X X X X X X X X X r ,.$.$.$.E . .                 ",
"        . o O O > P 5 . E -.$.-.-.] _ _ _ _ _ _ _ _ _ _ _ _ _ _ _ _ ] -.$.$.$.E . .                 ",
"        . . . . % P 5 . E +.E T T T R R R R R R R R T ) $.$.$.$.$.$.` T ` $.$.E . .                 ",
"        . . . . = P 5 . E _ O . . . . . . . . . . . . , %.$.$.$.$.-.m . h -.$.E . . .               ",
"    . ; e e 7 . = P 5 . E +.Y m m m m m m m m m m m m E @.$.$.$.$.$._ m _ $.$.E . : m : .           ",
"    . 4 U U J X % P 5 . E -.$.-.-.:.:.-.-.-.$.$.-.-.-.$.$.$.$.#.#.$.$.-.$.$.$.E . r $., .           ",
"    . 4 U U G X % P 5 . E $.$.$.#.e.y.*.#.$.$.$.$.$.$.$.$.$.$.1.1.#.$.$.$.$.$.E . r @., .           ",
"    . 4 U U G X % P 5 . E $.$.*.q.t.u.w.0.$.$.$.$.$.$.$.$.>.O.o.o.O.>.$.=. .-.E . r @., .           ",
"    . 4 U U G X % P 5 . E $.$.w.F F F F y.$.$.$.$.$.$.$.$.2.X.X.X.X.2.$...} =.E . r @., .           ",
"    . 4 U U G X % P 5 . E $.$.0.w.y.u.r.q.$.$.$.$.$.$.$.$.O.<.<.<.3.O.$.;. .-.E . r @., .           ",
"    . > U U G X % P 5 . E $.$.$.#.r.i.0.#.$.$.$.$.$.$.$.$.$.@.@.$.&.&.&.$.$.$.E . r @., .           ",
"    . 4 U U J X % P 5 . E $.$.$.$.*.0.$.$.$.$.$.$.$.$.$.$.$.$.$.{ A Z Z 4.$.-.E . r $., .           ",
"    . < d d u = 5 I 5 . E $.$.$.$.$.$.$.$.$.$.$.$.$.$.$.$.$.$.$.7.V B B 5.$.$.E . 0 E : .           ",
"        . . O J P U 5 . E $.$.$.$.$.-.$.$.$.$.$.$.$.$.$.$.$.$.$.7.V B B 5.$.$.E . . X               ",
"        . ; 7 L U U 5 . E -.$.$.$.E a a Y @.) a a m +.$.$.$.$.$.{ D C C 6.$.-.E . . .               ",
"        . u P U U U 6 X T %.@.$.$.r . . , @.h . . & ] $.$.$.$.$.$.$.$.$.$.@.%.E . .                 ",
"          + ; H U U J d 5 0 ] $.$.` Q Q _ $.] Q Q ) @.$.$.$.$.$.$.$.$.$.-.+.8 =                     ",
"          . o i d d d d + + ] ] Q Q ( ( Q Q Q Q ( Q Q Q Q Q Q Q ) @.] Q Q E + .                     ",
"              . . . . . . & ] S X X X X X X X X X X X X X X X . = ] m X X X                         ",
"            . . . . . . . & ] m . . . . . . . . . . . . . . . . & ] h . . . .                       ",
"        . . . . . . . . . & [ h . . . . . . . . . . . . . . . . & ] g . . . . .                     ",
"    . . . . . . . . . . . X : & . . . . . . . . . . . . . . . . X : & . . . . . .                   ",
"    . . . . . . . . . . . . . . . . . . . . . . . . . . . . . . . . . . . . . . .                   ",
"        . . . . . . . . . . . . . . . . . . . . . . . . . . . . . . . . . . . .                     ",
"        . . . . . . . . . . . . . . . . . . . . . . . . . . . . . . . . . . .                       ",
"              . . . . . . . . . . . . . . . . . . . . . . . . . . . . .                             ",
"                                                                                                    ",
"                                                                                                    "
};
