/* XPM */
static char *aaa0n_3s3od[] = {
/* columns rows colors chars-per-pixel */
"50 50 205 2 ",
"   c #1771AF",
".  c #027CB6",
"X  c #1775B3",
"o  c #1A75B1",
"O  c #227DB8",
"+  c #237AB6",
"@  c #0B83BB",
"#  c #0B86BD",
"$  c #1D84BC",
"%  c #1288BE",
"&  c #1587BF",
"*  c #2284BD",
"=  c #2C84BC",
"-  c #2488BF",
";  c #3888BD",
":  c #148AC0",
">  c #1A8CC2",
",  c #1E91C5",
"<  c #248CC2",
"1  c #2C8DC3",
"2  c #338DC2",
"3  c #3B8FC3",
"4  c #2393C6",
"5  c #2A91C6",
"6  c #2495C8",
"7  c #2C96C9",
"8  c #2698CA",
"9  c #2B9BCC",
"0  c #3292C6",
"q  c #3B92C5",
"w  c #3295C9",
"e  c #3C96C8",
"r  c #339CCD",
"t  c #3C9BCD",
"y  c #369ED0",
"u  c #3B9FD0",
"i  c #36A1CF",
"p  c #34A2D1",
"a  c #3DA4D3",
"s  c #3EA8D6",
"d  c #3FABD8",
"f  c #428FC2",
"g  c #4193C6",
"h  c #4A96C7",
"j  c #4196C8",
"k  c #439CCC",
"l  c #4A9ECD",
"z  c #4A97C9",
"x  c #559ECC",
"c  c #419FD0",
"v  c #42A1CE",
"b  c #4DA1CF",
"n  c #55A1CE",
"m  c #59A0CD",
"M  c #44A4D3",
"N  c #4BA4D3",
"B  c #43A9D6",
"V  c #4BAAD6",
"C  c #44ADD9",
"Z  c #4AAEDA",
"A  c #53A5D2",
"S  c #5AA5D0",
"D  c #53AAD6",
"F  c #5AABD5",
"G  c #53ADD9",
"H  c #59AFDA",
"J  c #4CB2DD",
"K  c #47B0DD",
"L  c #52B4DD",
"P  c #5BB3DC",
"I  c #5CB8DE",
"U  c #64ACD6",
"Y  c #6BAED6",
"T  c #65AED8",
"R  c #60A6D2",
"E  c #6EB0D6",
"W  c #64B4DD",
"Q  c #6CB3DB",
"!  c #65B9DF",
"~  c #6CBADF",
"^  c #73B2D7",
"/  c #73B5DB",
"(  c #79B6DB",
")  c #76B9DE",
"_  c #7DBADD",
"`  c #4DB6E1",
"'  c #53B6E0",
"]  c #5BB6E2",
"[  c #55B9E2",
"{  c #5CBCE4",
"}  c #5DBEE8",
"|  c #62BDE4",
" . c #6BBBE2",
".. c #61BFE8",
"X. c #67B7E2",
"o. c #74BEE2",
"O. c #7CBEE1",
"+. c #5EC0E9",
"@. c #61C0E7",
"#. c #6CC2E6",
"$. c #64C2EA",
"%. c #6AC5EC",
"&. c #6DC8EE",
"*. c #76C2E4",
"=. c #7BC4E4",
"-. c #73C5EA",
";. c #7BC6E9",
":. c #74C9EE",
">. c #7CCBED",
",. c #6ECAF0",
"<. c #73CCF2",
"1. c #7BCFF3",
"2. c #76D0F6",
"3. c #7CD1F6",
"4. c #76D1F9",
"5. c #7ED4F9",
"6. c #83BBDC",
"7. c #86BFE0",
"8. c #84C4E4",
"9. c #8CC5E5",
"0. c #8CC9E5",
"q. c #83CCEC",
"w. c #8CCDEB",
"e. c #86C8E7",
"r. c #94C5E3",
"t. c #95CAE7",
"y. c #9CCAE5",
"u. c #94CDEA",
"i. c #9CCEEA",
"p. c #8CD1EE",
"a. c #93D1EE",
"s. c #9DD3ED",
"d. c #81CFF0",
"f. c #84D2F3",
"g. c #8BD5F4",
"h. c #8ED8F7",
"j. c #82D6F9",
"k. c #88D7F8",
"l. c #86D8FC",
"z. c #8BDAFC",
"x. c #93D6F3",
"c. c #9DD4F1",
"v. c #93D9F6",
"b. c #9CD9F4",
"n. c #94DBFA",
"m. c #9ADDF9",
"M. c #A2CFE8",
"N. c #A3CBE3",
"B. c #AED2E6",
"V. c #A4D3EC",
"C. c #AAD5EC",
"Z. c #ABD9ED",
"A. c #A6D8EF",
"S. c #B3D7EB",
"D. c #B2DCEE",
"F. c #BBDEEE",
"G. c #A3D7F1",
"H. c #A4DCF5",
"J. c #ABDDF4",
"K. c #A3DEF9",
"L. c #B3DEF2",
"P. c #BADFF3",
"I. c #9DE1FC",
"U. c #ADE1F6",
"Y. c #A3E2FC",
"T. c #ABE2FA",
"R. c #ACE8FF",
"E. c #B5E2F5",
"W. c #BBE3F5",
"Q. c #B3E4FB",
"!. c #BBE6FA",
"~. c #B6E9FE",
"^. c #BCE9FD",
"/. c #C3DDED",
"(. c #C2E5F5",
"). c #CBE5F3",
"_. c #C7E8F7",
"`. c #CCE9F6",
"'. c #C1E7F8",
"]. c #C4EBFC",
"[. c #CCEDFB",
"{. c #D4EBF5",
"}. c #D2EEFB",
"|. c #DCEFF9",
" X c #D8EDF6",
".X c #C1F0FF",
"XX c #CAF1FF",
"oX c #CCF1FF",
"OX c #D4F1FD",
"+X c #DCF3FD",
"@X c #DCF9FF",
"#X c #E3F5FD",
"$X c #EAF6FC",
"%X c #E6F9FF",
"&X c #E5F9FF",
"*X c #EAFAFF",
"=X c #ECF9FE",
"-X c #EEFCFF",
";X c #EBFBFF",
":X c #F1FDFF",
">X c #F5FFFF",
",X c #F4FCFF",
"<X c #F4FDFE",
"1X c #F9FFFF",
"2X c #FDFFFF",
/* pixels */
"^ s.i.i.i.i.V.V.w.9.0.Q k Q ^.!.w.x.<.>.f.f.f.v.v.T.~.Y.z.l.n.V G ) W.(.P.L.L.A.G.G.G.G.c.c.c.c.G.8.",
"u.@X+X%X-X1X1X%X[.^.Y.| Z V 9 L I #.{ ' %.<.3.5.<.$.[ J ' { J 6 C V.>X*X1X=XOX].OX=X*XOX[.^.^.^.U.8.",
"u.[.OX}.].Q.Y.Y.v.#.' K w Z 8 , , 4 r Z Z Z C B r 6 4 4 9 y y M w C.*X[.OX}.].(.L.J.K.h.g.f.h.Y.g.r ",
"e.Y.K.U.b.$.,.{ B a a M c P I W W W P W  . . .g O.t.M.S././.V.s./ C.*X_.T.Q.].^.h.&.@.&.3.1.<.3., 6 ",
"Z ,.[ J V a M D  .w.E.'.oX+X%X-X:X%XoX].XX.Xg.T #X:X*X-X=X%X+XXXc.;.R.Y.5.&.*.| %.l.<.[ | K r $., 4 ",
"0 M V W 8.s.U.XX+X-X>X=X*X#X`.].!.W.].E.W.XXG S :X}.[.(.}.[.}.^.a.r C C r 9 8 9 9 9 9 p J L J [ s r ",
"A U.OX*X%X[.oX[.'.!.!.!.].U.J.J.E.].J.b.Q.Y.r ^ 2XOX(.W.].J.v J.J.N < 2 W W ! W H V k k N N M u M 1 ",
"=.;XOX[.[.].!.J.H.W.[.[.E.J.E.^.Q.-.d.n.Y.L 8 6.2X}.0.0.T.b.! ^.n.@.M u.+XOX#X$X%X+X[.!.E.L.W.P.J.^ ",
"O.OX].[.[.!.J.J. X+X[.W.E.].[.Y.h.L g.Y.m.> a 6.*X_._.=.,.n.H.n.,.J N _.OX(._.+X*X*X%X+XOXOX%X+XT.e.",
"8.OX[.[.'.J.W.1X+Xm.h.J.].^.Y.h.m.Y.I.n.M # P G ].+XU.f.J $.z.1.[ C Q &X[.'.L.[.[.].'.L.G.0.o.I.{ N ",
"~ XX[.].U.Y.[.E.g.v.n.I.Y.Y.I.Y.m.-.] L @ , P ] R.^.5.3.J > [ { J a i.+XOX!.v =.J.J.w.>.f.,.[ l.a 7 ",
"v R.Q.g.f.-.J J | #.>.-.#.-.>.#.L r % 4 r % w N ,.<.5.j.{ s 9 ' J N !.[.[.v.>.-.j.<.' { 1.z.l.@.9 t ",
"t B 4 > > < 5 t M P P P 0 0 k t k l A A A U S e t t B J J [ [ L C Q U.b.z.5.<.{ { J 9 % : 8 C Z p a ",
"Q ~ _ t.u.c.J.L.Z.e.0.b. .V.W.`.+X_.'.OX+X[.[.+X).0.Q n j w Z J a a 9 4 ' ] Z Z Z V t t M M H W  .Q ",
"-X1X>XOXOXW.+XOX^.~.m.5.| +X2X>X*X>X2X<X#X+X}.OX1X*XOX[.Q.x 8.e.k Q 8.0.u.u.s.G.J.Q.L.) s._.+X}.}.#X",
"$X2X[.!.W.A.J.b.J.n.5.[ M  X+X}.OX[. XE.'.[.!.T.K.x.K.^.T.^ E.+XD.D.-X>X:X=X*X=X>X[.XXF F.1X=X[.].OX",
"`.(.E.G.J.H.x.g.n.5.$.C M E.oX+X'.b.J.b.E.(.v.&.J 4.l.n.%._ 2X#X#X+X+X%X[.[.}.(.oX].e.F B.1X}.OX[.[.",
":X1X{.W.Q.:.1.3.5.&.L a 0 h.Y.!.1.,.:.g.b.H.g.&.{ j.j.5.V B.-X[.[.U.`.+X].U.a.g.v.Y.M N S.+X^.!.x.E.",
"!.U.v.T.>.$.b.m.j.j.{ y < :.z.T.:.>.&.3.j.g.x.3.3.<.l.1.k `.OXU.J.x.q.a.s.b.v.m.v.f.i D }.].m.3.k.m.",
"m.z.5.5.{ ' 3.>.:.,.| r : | 5.m.k.v.m.5.5.5.3.3.%.5.l.[ k W.].x.f.h.>.f.q.g.Y.Y.XXx.B M b.^.z.l.3.5.",
"3.&.J %.{ [ { a C [ L s 4 ] ,.j.3.{ g.~.3...j.j.' { { Z 0 =.XXQ.n.m.g.>.n.f.>.>.*.>.I k -.{ <.@.L { ",
"B r . > 9 9 s > . % @ % 4 w 9 4 p B C { { J ' { ' J J a M a V L I -.f.| | 9 4 % @ 4 a v t 9 r 8 r a ",
"m T Y Y Y Y E ( ^ Y T Q Y U Q Q Q ~ O.o.q = 2 2 0 e k 2 A P M M D H G G D t e t k v V N + 2 f z m 3 ",
"Q.-X:X*X>X*X&X*X1X2X>X2X*X*X%X+XOXXX~ U.0.A. X`.(.E.L.!.(.).}. X`.W.`.E.j.X.r.C.C.P.`. X%X#X:XoX.Xu.",
"E.=XOX[.(.}.[.[.}.}.OX:X+X_._.W.F.OXw b c.P.*X+X+X].E._.+X X[.`._.W.[.T.l.f.*X:X*X#XOX#X:XOX[.!.U.F ",
"(.+X[.J.J.W.OX+XOXOXOXOX[.x.a.F.).U.>.0 W C.OX`.{.W.L.F.Z.D.P.`.{.{.h.4.3.]  XOX(.L.J.W.E.H.J.~.#.r ",
"(.+X].a.W J.v.K.[.OX[.Q.>.@.} p.'.h.j.v w V.+X XE.v.b.Z.D.p.w.w.J.W.k.l.s a _.}.W.b.V.u.#.-.<.&.C u ",
"J.[.Q.^.;.L <.:.a.G.x.| @.$.$.$.3.l.%.6 p ;.Q.'.z.<.,.k.m.3.<.%.G.3.1.&.8 r J.^.T.k.1.p.1.<.%.' Z u ",
"J.Q.U.g.<.$.B &.b.-.a %.l.<.&.&.&.3.<.4 B ] j.~.f.<.j.j.5.j.j.g.b.%.L L : 7 O.J.T.,.&.1.l.l.n.L 9 a ",
"c.~.U.g.1.l.$.{ l.5.,.<.3.z.l.5.&.&.3.9 p Z J #.| ..@...1.l.3.1.l.z.3.&.9 r v  .x.&.&.<.%.} B 4 8 w ",
"~ k.^.Y.j.z.%.{ J @.3.3.@...{ ' s a p > 9 M C K a , p ' C [ J C { C d J a B s s 9 p s y w 1 1 j x f ",
"p [ &.:.%.{ J ' ' J ` C 9 > % : 4 7 t V P l k k q 2 2 2 $ - < < < $ - 5 t w e D A E ( 7.i.c.J.!.oXH.",
"5 : < 7 w 1 1 e e e z h n = ^ i.C.F.).`.+X#X[.OX+X XW.C.J.A.9.; V.C.V.i.C./.{.+X[.+XOX[.].Q.U.K.Y.*.",
"m t.y.t.i.C.(.(.L.}.+X[.b.h (.-X+X[.].^.OXOXQ.R.^.].].!.[.*.T i.@X].U.H.Q.^.U.H.U.b.T.U.f.x.H.$.+.M ",
"s.;XoX].].^.!.J.T.K.x.g.L $ B.XX^.(.b.U.Y.m.v.g.m.Q.[.Q.=.r m ^.T.T.b.q.e.x.U.b.H.E.v.<.<.v.<.L K B ",
"y.%XK.H.b.U.x.-.-.:.j.<.s : _ ^.v.G.E.=.f.f.q.h.v.Y.f. .B e P l.3.g.b.<.b._.g.<.&.f.G.q.@.-.' J L M ",
"9.+XJ.J.J.K.&.$.{ %.z.j.$.4 e g.Y.h.v. . .h.m.g.q.g.M > r e $.z.5.<.h.l.3.g.:.&.f.5.3.m.#.J L ' J M ",
"( Y.n.Q.T.z.<.{ C &.1.s 9 9 0 L ] | ] ] #. .V r 9 : % > k a 9 J ' J J [ { a a ' { %.<.&.%.' L J ' Z ",
"l L $.$.$.%.,.[ C Z p , : a = 2 q q q j k j 2 F P W W ! q e t 0 e t l N N N N A D N 0 t t M M M N 0 ",
"w p 6 6 4 7 r t M F ( N./.).|.W.G.J.J.H.J.s.h '.`.|.#X X#X#X#X+X[.[.[._.'.!.Q.Q.^.u.( ].(.).(.(.!.O.",
"X l N U ) 0.A.).$X2X2X2X=X>X:XJ.g.H.U.~.^.8.6.2X+XOXOX+X%X=X=X#X`.`.}.[._.!.H.T.J.8.{.>X+X+X+X#XOXu.",
"m OX#X%X-X>X=X+X+X:X2X}.4.l.<.%.&.:.:.h.Y.A M.%X[.+X+XOX[.'.E.s.s.u.u.L.J.b.K.G.*.r.$X[.OX[.Q.L.]. .",
"m U.J.U.^.!.Q.U.4.5.T.n.3.3.%.%.%.%.<.5.} j U.K.J.J.H.!.[.W.J.J.J.x.q.1.3.j.n.#.] y.[.J.!.K.f. .k.8 ",
"1 ` K [ &.3.k.!.[.T.<.<.[ { J %.&.$.&.[ 4 k q.z.l.j.Q.[.:X+X1.<.%.$.%.p.f.3.<.J M L.[.c.1.<.&.[ { & ",
"o e w w r s C [ :.x.3.4.@.C Z ' L Z J 4 1 l r | { %.1.j.n.n.,.L Z K { g.T.,.Z C A ].].1.@.<.3...s > ",
"R '.S.r./ R l e 0 5 e t M C C p 6 8 9 8 * G d s s p 9 J $.{ J s C ' [ <.x.| Z B / ^.m.`.L { @.' a 7 ",
"_ &X*X>X%X[.[._.W.V.0.W t 1 O e j k l l ; N A N N N N l l b N A b 1 C C | L C N O.x.z.J.J ' L ' C r ",
"/ Y.n.T.T.T.Y.T.Y.Y.g.&.{ B h oX}.OX[.[.[.'.[.+X#XOX[.[.!.!.!.Q.U.= r 9 { C s k a <.z.$.Z L J J 9 u ",
"M $.$.,.4.+.C a $.{ p 9 [ 5 r.:X+X+XOX(.E.W.`.OX#X#X+XOX^.Q.^.e.W O B s { s s c p C [ [ { C 9 4 r V ",
"1 a t u a t a N V M N V t = ].OX[.^.Q.^._.E.b.A.].[._.U.K.T.^.W W   u Z M B w X 1 - < 0 w e t t M 1 "
};
